/* XPM */
static char *nebta1916771477391677148026[] = {
/* columns rows colors chars-per-pixel */
"23 24 193 2 ",
"   c None",
".  c #133711",
"X  c #143711",
"o  c #173B12",
"O  c #183D13",
"+  c #193E14",
"@  c #331439",
"#  c #224817",
"$  c #234A18",
"%  c #254B18",
"&  c #264C19",
"*  c #2B511C",
"=  c #2D551C",
"-  c #2E561C",
";  c #315A1D",
":  c #325A1D",
">  c #325A1E",
",  c #335B1E",
"<  c #335C1E",
"1  c #345C1F",
"2  c #085D2F",
"3  c #3A432E",
"4  c #3B422F",
"5  c #225320",
"6  c #205420",
"7  c #355E20",
"8  c #1E622A",
"9  c #076333",
"0  c #096232",
"q  c #086535",
"w  c #076836",
"e  c #096C38",
"r  c #3C6522",
"t  c #3C6523",
"y  c #3D6722",
"u  c #3D6623",
"i  c #3D6524",
"p  c #3F6724",
"a  c #3F6923",
"s  c #276F32",
"d  c #2B6F31",
"f  c #406C23",
"g  c #406A24",
"h  c #416C24",
"j  c #416C25",
"k  c #426C25",
"l  c #426C26",
"z  c #436C26",
"x  c #436D26",
"c  c #456F26",
"v  c #457125",
"b  c #457026",
"n  c #40712E",
"m  c #4B7628",
"M  c #4B7728",
"N  c #4F7D2A",
"B  c #517F2B",
"V  c #4D6037",
"C  c #62793F",
"Z  c #481D4B",
"A  c #491D4C",
"S  c #4B1F4D",
"D  c #4C1F4E",
"F  c #40244D",
"G  c #4F2150",
"H  c #572657",
"J  c #5A2759",
"K  c #5F275C",
"L  c #4C3156",
"P  c #60295E",
"I  c #513F69",
"U  c #662B63",
"Y  c #692E65",
"T  c #6B2E66",
"R  c #6C2F67",
"E  c #6F2F6A",
"W  c #6C3068",
"Q  c #753773",
"!  c #7F3777",
"~  c #7F3B75",
"^  c #7F3D76",
"/  c #3F4664",
"(  c #414D44",
")  c #514445",
"_  c #524445",
"`  c #5B494C",
"'  c #4A4E5D",
"]  c #6A435F",
"[  c #5A605C",
"{  c #637840",
"}  c #4C4065",
"|  c #414A67",
" . c #58436E",
".. c #4D556B",
"X. c #5D5B62",
"o. c #585D6B",
"O. c #5D547A",
"+. c #5B577C",
"@. c #6E4462",
"#. c #684073",
"$. c #684375",
"%. c #624976",
"&. c #6C4578",
"*. c #704178",
"=. c #724178",
"-. c #75437B",
";. c #78407B",
":. c #676769",
">. c #646677",
",. c #676870",
"<. c #696A70",
"1. c #666C7E",
"2. c #6F727A",
"3. c #747575",
"4. c #813778",
"5. c #83377B",
"6. c #87397D",
"7. c #863B7C",
"8. c #843C7E",
"9. c #54812B",
"0. c #55812D",
"q. c #54802E",
"w. c #57812F",
"e. c #56822E",
"r. c #57822F",
"t. c #56842D",
"y. c #5A862F",
"u. c #669038",
"i. c #679139",
"p. c #699339",
"a. c #6C933E",
"s. c #6E933F",
"d. c #729D3F",
"f. c #098146",
"g. c #059755",
"h. c #03A45E",
"j. c #02A961",
"k. c #675982",
"l. c #685983",
"z. c #646486",
"x. c #666D8A",
"c. c #656D8C",
"v. c #6C698D",
"b. c #6B6C8E",
"n. c #6B7183",
"m. c #67708F",
"M. c #7B7E87",
"N. c #747B8F",
"B. c #6C6F91",
"V. c #6D7794",
"C. c #6D7596",
"Z. c #717194",
"A. c #747C93",
"S. c #707896",
"D. c #727898",
"F. c #727A99",
"G. c #707A9A",
"H. c #777F9E",
"J. c #863E80",
"K. c #893F81",
"L. c #893F83",
"P. c #8D3F83",
"I. c #8F3F85",
"U. c #913E85",
"Y. c #884083",
"T. c #964189",
"R. c #98438A",
"E. c #99448B",
"W. c #99438C",
"Q. c #9A448C",
"!. c #9B458C",
"~. c #9D468E",
"^. c #A04791",
"/. c #A04890",
"(. c #A14B91",
"). c #A44C93",
"_. c #A54A95",
"`. c #A84F96",
"'. c #AB5198",
"]. c #AD529A",
"[. c #AF539B",
"{. c #AF529C",
"}. c #B2559D",
"|. c #B5569F",
" X c #B5579F",
".X c #78809A",
"XX c #7880A0",
"oX c #7D87A4",
"OX c #818181",
"+X c #858EAD",
"@X c #8F99B3",
"#X c #929BBC",
"$X c #A6B0D0",
/* pixels */
"                                              ",
"                | +XV.    oXc.                ",
"                / #X@X2.n.$Xm.                ",
"                F B.1.3.,.H.}                 ",
"              D Q z.' [ X.x.#.K               ",
"              E Y.b.>.OXM.S.-.4.@             ",
"            S 6.L.Z.N.:.o.XX;.U.G             ",
"            P E.I.l..X<.A.v.J.T.U             ",
"            T ]./.=.D...G.&.W.}.W             ",
"            T `.}.P.k.G.O.L.].`.R             ",
"            H (.|.~.=.V.$.E.|.).J             ",
"            Z ! ^.W.8.+.%.E._.6.S             ",
"            3 ) ] 4.5. .} 4.@._ 3             ",
"        + = k 9.y.C ` L ( { r.B k = O         ",
"              & y 9.s.V a.q.u #               ",
"                * k q.y.q.k &                 ",
"                  $ 6 8 5 %                   ",
"                    2 g.q                     ",
"                    0 h.e                     ",
"                    w j.9                     ",
"            O < v m s f.d m v : o             ",
"            i k : g d.n d.u < k i             ",
"          7 p.p.9.< c c k 7 t.p.i.=           ",
"                a : .   o : u                 "
};
