/* XPM */
static char *nebta0116771477391677148023[] = {
/* columns rows colors chars-per-pixel */
"23 24 210 2 ",
"   c None",
".  c #143711",
"X  c #143811",
"o  c #163A12",
"O  c #173A12",
"+  c #173B12",
"@  c #183B13",
"#  c #2A192F",
"$  c #2C1F2D",
"%  c #301E2C",
"&  c #2C1A31",
"*  c #37163D",
"=  c #373139",
"-  c #3D303C",
";  c #3F323C",
":  c #3B343C",
">  c #2F571C",
",  c #30591D",
"<  c #325A1D",
"1  c #315A1E",
"2  c #325A1E",
"3  c #325B1E",
"4  c #335B1F",
"5  c #335C1F",
"6  c #355D1F",
"7  c #0B5226",
"8  c #0B5528",
"9  c #2C4023",
"0  c #2D4422",
"q  c #314E22",
"w  c #334926",
"e  c #354D26",
"r  c #335023",
"t  c #355D20",
"y  c #365F20",
"u  c #3E5929",
"i  c #3F5B29",
"p  c #3A6522",
"a  c #3C6523",
"s  c #3D6722",
"d  c #3C6723",
"f  c #3E6624",
"g  c #3E6C26",
"h  c #2B7133",
"j  c #297135",
"k  c #3F7B33",
"l  c #406B23",
"z  c #406925",
"x  c #406A24",
"c  c #436D25",
"v  c #436D26",
"b  c #446E26",
"n  c #4A672E",
"m  c #4B692F",
"M  c #457025",
"N  c #457125",
"B  c #457026",
"V  c #477227",
"C  c #477328",
"Z  c #4E7929",
"A  c #4F7929",
"S  c #4D7A29",
"D  c #4D7B29",
"F  c #5C7539",
"G  c #3D1942",
"H  c #3D1A42",
"J  c #333A56",
"K  c #411B45",
"L  c #421B46",
"P  c #461D49",
"I  c #481E4B",
"U  c #432045",
"Y  c #422145",
"T  c #4C214E",
"R  c #453B44",
"E  c #443D4A",
"W  c #482A54",
"Q  c #492C56",
"!  c #672E64",
"~  c #6C2F68",
"^  c #753C6F",
"/  c #673C71",
"(  c #6D3F76",
")  c #783472",
"_  c #7B3773",
"`  c #793574",
"'  c #7F3A76",
"]  c #753F79",
"[  c #7E3B7A",
"{  c #3F4343",
"}  c #3D4663",
"|  c #464549",
" . c #48434E",
".. c #4C4B4E",
"X. c #4D4759",
"o. c #4F4A5E",
"O. c #545255",
"+. c #545558",
"@. c #575459",
"#. c #59575C",
"$. c #5B5C5E",
"%. c #675255",
"&. c #685257",
"*. c #5F7D42",
"=. c #606B42",
"-. c #606A43",
";. c #677745",
":. c #4B4A60",
">. c #4D446A",
",. c #434B69",
"<. c #5D4067",
"1. c #565666",
"2. c #5E5A61",
"3. c #555668",
"4. c #5B5D6D",
"5. c #584F75",
"6. c #5A5E71",
"7. c #515879",
"8. c #545D78",
"9. c #625E63",
"0. c #634C78",
"q. c #644D78",
"w. c #7F4175",
"e. c #714279",
"r. c #63507A",
"t. c #62517A",
"y. c #63517C",
"u. c #63527C",
"i. c #64547D",
"p. c #64557E",
"a. c #59617E",
"s. c #686167",
"d. c #60626D",
"f. c #6A6469",
"g. c #6E6E70",
"h. c #60647A",
"j. c #66697A",
"k. c #6A6F7F",
"l. c #727176",
"z. c #727377",
"x. c #757474",
"c. c #747576",
"v. c #75757B",
"b. c #74777F",
"n. c #803778",
"m. c #84397B",
"M. c #843A7B",
"N. c #823D7E",
"B. c #893D7E",
"V. c #844378",
"C. c #54822C",
"Z. c #56842D",
"A. c #5E8634",
"S. c #618B35",
"D. c #638C37",
"F. c #648E37",
"G. c #649036",
"H. c #689337",
"J. c #679338",
"K. c #67903A",
"L. c #699438",
"P. c #709F3F",
"I. c #088246",
"U. c #059654",
"Y. c #729E40",
"T. c #666085",
"R. c #616787",
"E. c #63688A",
"W. c #66698C",
"Q. c #646E8E",
"!. c #696C8E",
"~. c #717980",
"^. c #767E97",
"/. c #72799A",
"(. c #737B9A",
"). c #747B9B",
"_. c #747D98",
"`. c #747B9D",
"'. c #787EA0",
"]. c #863E80",
"[. c #8A3B80",
"{. c #883E80",
"}. c #8B3E81",
"|. c #893E82",
" X c #8E3C83",
".X c #8E3C84",
"XX c #914188",
"oX c #95418A",
"OX c #9C468E",
"+X c #9A4E89",
"@X c #9A4E8A",
"#X c #A14A90",
"$X c #A24B91",
"%X c #A24A92",
"&X c #A34B93",
"*X c #A44B93",
"=X c #A24C91",
"-X c #A24D91",
";X c #A54C94",
":X c #B657A1",
">X c #B959A3",
",X c #7B83A3",
"<X c #808AA9",
"1X c #828BAA",
"2X c #848DAB",
"3X c #8790AF",
"4X c #8A93B2",
"5X c #8F98B9",
"6X c #96A0BC",
"7X c #9BA5C4",
/* pixels */
"                                              ",
"                                              ",
"                                              ",
"                                              ",
"            8.d.x.|       ..z.4.a.            ",
"        ,.5X6Xb.g.          x.~.7X4X}         ",
"        J E.2XE $           %  .3XR.          ",
"          Q !.X.f.+.      $.s.o.W.W           ",
"          ` p._.z.:       R b.^.r.)           ",
"        H .Xe.,X6.9.+.  #.2.h.`.] |.*         ",
"        T m.XXy.1Xj.; = - ~.1Xq.oXn.P         ",
"        I B.OX].y./.1.O.3.`.q.|.OXm.K         ",
"        L ' :X#X].i.(.:./.0.|.&X:X_ H         ",
"          ~ ;X>X#X[ T.Q.5.m.&X>X&X!           ",
"          U V.@X&X.X( 7./ .X&X@Xw.U           ",
"        @ r m F -.%.^ >.<.%.=.F m r X         ",
"            9 i Z D.;.{ *.D.Z u 0             ",
"              # e C J.A.G.M w &               ",
"                  5 d g p y                   ",
"                    8 I.7                     ",
"            @ 3 M Z h U.h Z M 3 X             ",
"            z c 3 z Y.k Y.s 3 b f             ",
"          y K.L.C.3 M b c y Z.H.K.>           ",
"                l 3 X   . 3 s                 "
};
