/* XPM */
static char *nebta0216771477391677148024[] = {
/* columns rows colors chars-per-pixel */
"23 24 211 2 ",
"   c None",
".  c #133610",
"X  c #173714",
"o  c #153811",
"O  c #153812",
"+  c #173C12",
"@  c #193815",
"#  c #311B36",
"$  c #311E36",
"%  c #232525",
"&  c #232725",
"*  c #2F3A27",
"=  c #303C28",
"-  c #352636",
";  c #382A35",
":  c #3B2E3C",
">  c #3E323B",
",  c #3A393E",
"<  c #2F561D",
"1  c #30581D",
"2  c #315A1D",
"3  c #325B1D",
"4  c #315A1E",
"5  c #325A1E",
"6  c #335C1F",
"7  c #345D1E",
"8  c #355D1F",
"9  c #0C5326",
"0  c #0B5528",
"q  c #314C23",
"w  c #334E23",
"e  c #354A27",
"r  c #374E28",
"t  c #345B21",
"y  c #365C20",
"u  c #345E20",
"i  c #3C6523",
"p  c #3C6623",
"a  c #3F6725",
"s  c #3D6822",
"d  c #3E6A24",
"f  c #3F6E27",
"g  c #287233",
"h  c #2C7233",
"j  c #405B2B",
"k  c #415C2B",
"l  c #406B22",
"z  c #406A24",
"x  c #436E24",
"c  c #436D26",
"v  c #466F25",
"b  c #446D27",
"n  c #446E26",
"m  c #456F26",
"M  c #467125",
"N  c #477227",
"B  c #487328",
"V  c #4C7728",
"C  c #4E7729",
"Z  c #4C7B28",
"A  c #4D7C28",
"S  c #4F6A31",
"D  c #506B32",
"F  c #407B34",
"G  c #5B7638",
"H  c #5D7639",
"J  c #342144",
"K  c #342446",
"L  c #382E45",
"P  c #3C3F42",
"I  c #421B45",
"U  c #481E4A",
"Y  c #481F4A",
"T  c #4D214F",
"R  c #453F47",
"E  c #493B47",
"W  c #4B3C48",
"Q  c #522750",
"!  c #542354",
"~  c #552354",
"^  c #572355",
"/  c #542454",
"(  c #582556",
")  c #562A54",
"_  c #592658",
"`  c #5A2758",
"'  c #5B2659",
"]  c #5F3A6C",
"[  c #713C6D",
"{  c #6B3B70",
"}  c #693D72",
"|  c #6F3F76",
" . c #7B3774",
".. c #703D75",
"X. c #723E77",
"o. c #743D77",
"O. c #743E76",
"+. c #7F3977",
"@. c #753F79",
"#. c #793D78",
"$. c #7A3D7A",
"%. c #484450",
"&. c #4A4457",
"*. c #53515B",
"=. c #57575B",
"-. c #53515F",
";. c #5A5B5F",
":. c #685056",
">. c #695057",
",. c #5F7A41",
"<. c #626944",
"1. c #616A44",
"2. c #657445",
"3. c #49466A",
"4. c #585560",
"5. c #5C5B60",
"6. c #5A5965",
"7. c #575275",
"8. c #5B577C",
"9. c #505878",
"0. c #5F5F7B",
"q. c #65406A",
"w. c #655F66",
"e. c #654475",
"r. c #64557D",
"t. c #666367",
"y. c #686265",
"u. c #666368",
"i. c #6A696C",
"p. c #706E6F",
"a. c #64677C",
"s. c #74767D",
"d. c #75777D",
"f. c #54822C",
"g. c #57842D",
"h. c #5C8434",
"j. c #628B36",
"k. c #638C36",
"l. c #648C38",
"z. c #669137",
"x. c #679437",
"c. c #689338",
"v. c #689438",
"b. c #719F3F",
"n. c #078146",
"m. c #059553",
"M. c #729E40",
"N. c #585F80",
"B. c #655B82",
"V. c #5B6383",
"C. c #5C6484",
"Z. c #636681",
"A. c #626286",
"S. c #696E83",
"D. c #686489",
"F. c #69678B",
"G. c #626A89",
"H. c #686D8A",
"J. c #696E8A",
"K. c #6B698E",
"L. c #6B6B8F",
"P. c #6A6D8F",
"I. c #767A86",
"U. c #747988",
"Y. c #777D8C",
"T. c #6D6F92",
"R. c #697090",
"E. c #697290",
"W. c #6B7290",
"Q. c #6C7290",
"!. c #6C7392",
"~. c #717697",
"^. c #8D3B82",
"/. c #8D3C83",
"(. c #903F84",
"). c #903F85",
"_. c #8F4086",
"`. c #914087",
"'. c #914981",
"]. c #904A81",
"[. c #97408A",
"{. c #97428A",
"}. c #97428B",
"|. c #954488",
" X c #99448B",
".X c #99418C",
"XX c #9A448C",
"oX c #9B458D",
"OX c #9B468C",
"+X c #9A478C",
"@X c #9F4A8F",
"#X c #9C508A",
"$X c #9E508B",
"%X c #A04C90",
"&X c #AF539B",
"*X c #AF529C",
"=X c #B0539C",
"-X c #B2549E",
";X c #B556A0",
":X c #B657A1",
">X c #77818F",
",X c #7C859E",
"<X c #7D86A1",
"1X c #7E88A3",
"2X c #808384",
"3X c #8A8C89",
"4X c #8089A6",
"5X c #949DBF",
"6X c #98A1C3",
"7X c #9BA5C3",
"8X c #9BA5C5",
/* pixels */
"                                              ",
"                                              ",
"                                              ",
"                                              ",
"              s.;.          5.s.              ",
"        E.7XY.3X            =.2X>X8XG.        ",
"        V.6Xa.>               : S.5XN.        ",
"        K 8.0.W i.          p.E Z.7.J         ",
"        ^ } Q.I.t.          y.U.T.{ /         ",
"        ' (.B.4X%.t.      u.&.4Xr.(.!         ",
"        ( .X#.~.,X4.; , - 6.1XT.#.}.!         ",
"        ' (..Xe.L.H.*.R -.E.F.X.}.(./         ",
"        T  X=X XX.L.J.L Q.F.#.XX=X|.T         ",
"        Y +.=X:X XX.J.C.A.o.OX:X&X .I         ",
"          ) '.$X@X^.e.9.] ^.%X@X].Q           ",
"        @ w D H <.:.[ 3.q.:.1.G S q X         ",
"            = k Z l.2.P ,.j.Z j *             ",
"              $ r V c.h.c.N e #               ",
"                & y x N i t %                 ",
"                    0 n.9                     ",
"            + 3 M C h m.h V x 3 O             ",
"            n n 3 z M.h M.i 3 n a             ",
"          y l.c.f.7 n M x t g.v.k.<           ",
"                l 3 .   . t s                 "
};
