/* XPM */
static char *nebta0316771477391677148024[] = {
/* columns rows colors chars-per-pixel */
"23 24 210 2 ",
"   c None",
".  c #143711",
"X  c #133912",
"o  c #143811",
"O  c #173B12",
"+  c #193018",
"@  c #1A3318",
"#  c #20351C",
"$  c #23371E",
"%  c #2F1931",
"&  c #34143B",
"*  c #36143E",
"=  c #39193E",
"-  c #3A183E",
";  c #2A282A",
":  c #2B2C2A",
">  c #373D2D",
",  c #342634",
"<  c #37213A",
"1  c #38223A",
"2  c #342A38",
"3  c #383D31",
"4  c #2E551C",
"5  c #30571D",
"6  c #315A1D",
"7  c #325A1D",
"8  c #325A1E",
"9  c #325B1E",
"0  c #335B1F",
"q  c #335C1E",
"w  c #335C1F",
"e  c #0E5325",
"r  c #0E5627",
"t  c #364C27",
"y  c #384F28",
"u  c #355E20",
"i  c #385029",
"p  c #395328",
"a  c #386022",
"s  c #3A6222",
"d  c #3C6523",
"f  c #3D6722",
"g  c #3F6922",
"h  c #3F6924",
"j  c #2B7032",
"k  c #287234",
"l  c #406B25",
"z  c #426A26",
"x  c #436D25",
"c  c #436E24",
"v  c #436E26",
"b  c #446F24",
"n  c #456E27",
"m  c #43612B",
"M  c #44632B",
"N  c #467025",
"B  c #457026",
"V  c #467028",
"C  c #467328",
"Z  c #487129",
"A  c #497329",
"S  c #497429",
"D  c #4C7628",
"F  c #4C7728",
"G  c #4F7E29",
"H  c #4F7E2A",
"J  c #566B38",
"K  c #556C38",
"L  c #407B33",
"P  c #5D723B",
"I  c #5D733C",
"U  c #363C43",
"Y  c #403243",
"T  c #433748",
"R  c #552454",
"E  c #572657",
"W  c #5B2B5C",
"Q  c #5A2C5E",
"!  c #60295E",
"~  c #652C62",
"^  c #6A2E66",
"/  c #6E3367",
"(  c #6E3069",
")  c #663A6A",
"_  c #693A6B",
"`  c #72376B",
"'  c #72306C",
"]  c #783371",
"[  c #793472",
"{  c #7C3575",
"}  c #0A7C42",
"|  c #4D434C",
" . c #4C444F",
".. c #4F454F",
"X. c #4E4350",
"o. c #514952",
"O. c #544A53",
"+. c #524E56",
"@. c #524F57",
"#. c #554E56",
"$. c #54525A",
"%. c #56525A",
"&. c #545758",
"*. c #6D4B5E",
"=. c #6C4C5C",
"-. c #5E7244",
";. c #616D45",
":. c #636649",
">. c #65654A",
",. c #47476A",
"<. c #4A496A",
"1. c #4A4C6B",
"2. c #56416C",
"3. c #49516F",
"4. c #5B5C60",
"5. c #5D5F62",
"6. c #55546B",
"7. c #56546C",
"8. c #5D4C75",
"9. c #4F5876",
"0. c #505071",
"q. c #585A71",
"w. c #5A5A74",
"e. c #505A79",
"r. c #674475",
"t. c #664575",
"y. c #654774",
"u. c #6E4177",
"i. c #6B4477",
"p. c #644975",
"a. c #624E78",
"s. c #634F7A",
"d. c #63557D",
"f. c #5F6063",
"g. c #5E6172",
"h. c #606062",
"j. c #646566",
"k. c #636679",
"l. c #79797B",
"z. c #7D7D7E",
"x. c #843F7F",
"c. c #54822C",
"v. c #57842E",
"b. c #5A8034",
"n. c #618937",
"m. c #628A36",
"M. c #648B38",
"N. c #648C38",
"B. c #679337",
"V. c #679238",
"C. c #689439",
"Z. c #6B963A",
"A. c #719F3F",
"S. c #049252",
"D. c #729F40",
"F. c #615A80",
"G. c #635E84",
"H. c #656980",
"J. c #676B83",
"K. c #6D7283",
"L. c #6F7587",
"P. c #6C758E",
"I. c #7F7F83",
"U. c #6D7395",
"Y. c #6F7597",
"T. c #717A95",
"R. c #737C9B",
"E. c #737D9B",
"W. c #73799C",
"Q. c #757C9C",
"!. c #757C9D",
"~. c #777FA0",
"^. c #787FA0",
"/. c #883B80",
"(. c #8A3B82",
"). c #8A3E81",
"_. c #883E82",
"`. c #8E3E83",
"'. c #8F3F85",
"]. c #924385",
"[. c #924086",
"{. c #984C87",
"}. c #924189",
"|. c #97418B",
" X c #974589",
".X c #97428C",
"XX c #99458B",
"oX c #9A468C",
"OX c #984C88",
"+X c #A14991",
"@X c #A24A92",
"#X c #A54C94",
"$X c #A64D95",
"%X c #A74E95",
"&X c #A55392",
"*X c #A55492",
"=X c #AB5098",
"-X c #B959A2",
";X c #B959A3",
":X c #7B8086",
">X c #7E8085",
",X c #7980A1",
"<X c #7B84A4",
"1X c #828185",
"2X c #828BA9",
"3X c #828BAB",
"4X c #8F98B3",
"5X c #939CB9",
"6X c #959DBF",
"7X c #99A2C4",
/* pixels */
"                                              ",
"                                              ",
"                                              ",
"                                              ",
"              f.              j.              ",
"        E.P.>Xz.              l.:XT.Q.        ",
"      9.7X4X$.                  &.5X6X3.      ",
"        0.Q.Y O.            5...T Q.<.        ",
"        Q H.J.1X#.          $.{.J.F.W         ",
"        { i.<Xg...4.      h.,.M.^.u.[         ",
"        [ }.8.<XK.X.    , o.U.<Xs..X'         ",
"        ( .X].d.~.6.@.2 @.e.<XF.)..X^         ",
"        ~ $X+X).p.!.7.% w.W.t.'.+X$XW         ",
"        E  X;X$X`.t.Y.1.U.t.}.=X;X].R         ",
"        - ` OX*X X/.8.e.2.(.XX&XOX( =         ",
"        @ y K I >.*._ ,.) =.:.I J t @         ",
"          $ 3 M H N.;.U -.n.H m > #           ",
"            * 1 i F Z.b.V.F i < &             ",
"                : s b C l s ;                 ",
"                    r } e                     ",
"            O u b D k S.j F x 6 o             ",
"            Z n 6 l A.L D.s u n l             ",
"          u n.V.c.6 B B x u v.V.n.5           ",
"                l 6 o   X 6 f                 "
};
