/* XPM */
static char *nebta0416771477391677148024[] = {
/* columns rows colors chars-per-pixel */
"23 24 218 2 ",
"   c None",
".  c #143711",
"X  c #143811",
"o  c #153911",
"O  c #193A13",
"+  c #1B3A14",
"@  c #202F1F",
"#  c #273F1D",
"$  c #273F1E",
"%  c #280F28",
"&  c #33123C",
"*  c #36133E",
"=  c #302B2F",
"-  c #233021",
";  c #283224",
":  c #2A3426",
">  c #342130",
",  c #352130",
"<  c #322F30",
"1  c #3D273D",
"2  c #3D283D",
"3  c #3F323F",
"4  c #2D541C",
"5  c #2F561D",
"6  c #31591D",
"7  c #325A1D",
"8  c #31591E",
"9  c #33591F",
"0  c #325A1E",
"q  c #335B1E",
"w  c #345D1F",
"e  c #125023",
"r  c #125223",
"t  c #3C5727",
"y  c #365E20",
"u  c #3B5929",
"i  c #0E763C",
"p  c #3B6223",
"a  c #3C6423",
"s  c #3C6523",
"d  c #3D6722",
"f  c #3E6922",
"g  c #3F6924",
"h  c #286F32",
"j  c #2C7233",
"k  c #3F7B33",
"l  c #404433",
"z  c #404734",
"x  c #425031",
"c  c #445332",
"v  c #436D25",
"b  c #456F25",
"n  c #446C27",
"m  c #456F26",
"M  c #456729",
"N  c #456829",
"B  c #447025",
"V  c #457025",
"C  c #467127",
"Z  c #4B7527",
"A  c #477128",
"S  c #4A7528",
"D  c #4B7729",
"F  c #4D7728",
"G  c #4C762A",
"H  c #4B7829",
"J  c #4D792A",
"K  c #556938",
"L  c #57693A",
"P  c #517631",
"I  c #3A1840",
"U  c #3B1940",
"Y  c #3C1842",
"T  c #381E44",
"R  c #3B2147",
"E  c #352E4A",
"W  c #353947",
"Q  c #401B44",
"!  c #411B45",
"~  c #431D47",
"^  c #471D49",
"/  c #481D4A",
"(  c #4C1F4E",
")  c #433643",
"_  c #443A4D",
"`  c #512352",
"'  c #522452",
"]  c #5D3767",
"[  c #672D63",
"{  c #6B3067",
"}  c #603C6B",
"|  c #7D3775",
" . c #763975",
".. c #703F76",
"X. c #743D77",
"o. c #7A3977",
"O. c #793B79",
"+. c #7C3D79",
"@. c #7E3C7B",
"#. c #7E3B7C",
"$. c #4A454C",
"%. c #4C4B4A",
"&. c #474055",
"*. c #494351",
"=. c #4E4650",
"-. c #4F4750",
";. c #4E4651",
":. c #4C4557",
">. c #504950",
",. c #504C53",
"<. c #504E52",
"1. c #545457",
"2. c #59575A",
"3. c #635D4B",
"4. c #635B4D",
"5. c #5B6246",
"6. c #5B6446",
"7. c #647044",
"8. c #657144",
"9. c #464B6B",
"0. c #54446C",
"q. c #5E5C61",
"w. c #5A596B",
"e. c #564A70",
"r. c #4D5675",
"t. c #555074",
"y. c #5D5F74",
"u. c #525878",
"i. c #5B587D",
"p. c #734765",
"a. c #754567",
"s. c #615C66",
"d. c #625C66",
"f. c #654675",
"g. c #684274",
"h. c #694375",
"j. c #6E4176",
"k. c #5D6272",
"l. c #5F6474",
"z. c #56607C",
"x. c #6C6C73",
"c. c #6C6C75",
"v. c #7B7B7E",
"b. c #813878",
"n. c #82397A",
"m. c #863F7B",
"M. c #863A7C",
"N. c #89417D",
"B. c #518129",
"V. c #53812B",
"C. c #55822C",
"Z. c #57852D",
"A. c #5C8434",
"S. c #608836",
"D. c #65893A",
"F. c #678A3B",
"G. c #659037",
"H. c #679237",
"J. c #6B963A",
"K. c #6C973B",
"L. c #709F3E",
"P. c #719E3F",
"I. c #059553",
"U. c #645880",
"Y. c #665E85",
"T. c #665F85",
"R. c #5A6081",
"E. c #5D6784",
"W. c #656287",
"Q. c #69668A",
"!. c #68678B",
"~. c #666A88",
"^. c #676C8C",
"/. c #686D8B",
"(. c #6B7087",
"). c #6C728E",
"_. c #707584",
"`. c #707684",
"'. c #7E7D80",
"]. c #6B7090",
"[. c #707694",
"{. c #727597",
"}. c #727890",
"|. c #747C98",
" X c #767B9C",
".X c #757D9D",
"XX c #777E9F",
"oX c #933F87",
"OX c #934087",
"+X c #944187",
"@X c #944088",
"#X c #944188",
"$X c #944189",
"%X c #97428A",
"&X c #97428B",
"*X c #9B468C",
"=X c #9D478E",
"-X c #9E478F",
";X c #A04F8F",
":X c #A1518F",
">X c #A04890",
",X c #AC5199",
"<X c #AF539B",
"1X c #AB5498",
"2X c #AD5499",
"3X c #B2549E",
"4X c #B4569F",
"5X c #7A8298",
"6X c #7C849C",
"7X c #7B84A3",
"8X c #7B84A4",
"9X c #7E86A6",
"0X c #818485",
"qX c #848586",
"wX c #848CAE",
"eX c #8992B3",
"rX c #A4AECC",
"tX c #A6B0D0",
/* pixels */
"                                              ",
"                                              ",
"                                              ",
"                                              ",
"                                              ",
"        E.l.qX1.              2.0Xk.z.        ",
"      9XrX_.q.                  s._.tX7X      ",
"      R.eXw.> <.              <.> k.wXu.      ",
"      R r.(.x.N.              v.d.^.0.T       ",
"      ( g.(.5X-.>.          ;.;.6XW.O./       ",
"      ^ +Xf.8X/.c.3       ) c.}..Xj.OX!       ",
"      ~ M.+Xf.|.).*.$.  %.:.[.{.g.%Xn.!       ",
"      U b.=XoX..Q.|._ % &..XW.X.%X>X| U       ",
"        { 3X3X=X+.W.^.E ].U.@.=X4X1X[         ",
"        ` N.:X2XoXO.i.r.e.@.+X2X>XN.'         ",
"        - c K 8.4.p.} 9.] p.3.7.K x @         ",
"          : z N V.F.5.W 6.F.V.M t =           ",
"            ! 2 u G J.P J.G t 1 Y             ",
"              * < d G J B p = &               ",
"                # o e i r + #                 ",
"            o 7 m Z h I.j J B 5 .             ",
"            G A 7 g L.k P.s 7 m n             ",
"          7 A.G.C.w m m m y Z.H.S.5           ",
"                f 7 .   . 7 d                 "
};
