/* XPM */
static char *nebta0516771477391677148024[] = {
/* columns rows colors chars-per-pixel */
"23 24 216 2 ",
"   c None",
".  c #133610",
"X  c #143811",
"o  c #153911",
"O  c #163A12",
"+  c #1C3E15",
"@  c #1D3E15",
"#  c #271936",
"$  c #2B2E2B",
"%  c #293D20",
"&  c #2A3E21",
"*  c #2D302C",
"=  c #32312D",
"-  c #322231",
";  c #342434",
":  c #3A283D",
">  c #392B3F",
",  c #353331",
"<  c #363132",
"1  c #383434",
"2  c #2C521C",
"3  c #2D541C",
"4  c #2E561C",
"5  c #30591D",
"6  c #315A1D",
"7  c #325A1D",
"8  c #325A1E",
"9  c #335C1F",
"0  c #345C1F",
"q  c #154F21",
"w  c #165222",
"e  c #365E20",
"r  c #3D5A29",
"t  c #3E5C29",
"y  c #117138",
"u  c #3D6523",
"i  c #3D6724",
"p  c #3E6724",
"a  c #3E6822",
"s  c #3E6823",
"d  c #3F6924",
"f  c #277133",
"g  c #297032",
"h  c #414833",
"j  c #424834",
"k  c #475336",
"l  c #485435",
"z  c #436D25",
"x  c #436F25",
"c  c #456F26",
"v  c #466F26",
"b  c #466F27",
"n  c #456A28",
"m  c #466B28",
"M  c #476F28",
"N  c #447125",
"B  c #4B7526",
"V  c #4B7527",
"C  c #487329",
"Z  c #4B7629",
"A  c #4D7929",
"S  c #4C782A",
"D  c #4D792A",
"F  c #517C2B",
"G  c #507A2D",
"H  c #556739",
"J  c #566939",
"K  c #4D7031",
"L  c #407B33",
"P  c #3B1541",
"I  c #3D1743",
"U  c #3C1941",
"Y  c #2B2C48",
"T  c #313747",
"R  c #3E3743",
"E  c #421B46",
"W  c #471E49",
"Q  c #491E4C",
"!  c #422B40",
"~  c #422A41",
"^  c #403642",
"/  c #423643",
"(  c #443943",
")  c #403D44",
"_  c #433F46",
"`  c #532354",
"'  c #562556",
"]  c #572557",
"[  c #5A2659",
"{  c #5B285B",
"}  c #5C285B",
"|  c #453C5F",
" . c #553864",
".. c #573F6A",
"X. c #642C62",
"o. c #662D63",
"O. c #672C64",
"+. c #6D2E69",
"@. c #703E76",
"#. c #743F78",
"$. c #7B3E7B",
"%. c #7E3D7C",
"&. c #4A414C",
"*. c #4A424D",
"=. c #4D4C4F",
"-. c #555C47",
";. c #585E44",
":. c #484154",
">. c #4E475B",
",. c #555257",
"<. c #61544C",
"1. c #60554C",
"2. c #6B6F49",
"3. c #697049",
"4. c #464061",
"5. c #434968",
"6. c #464D6D",
"7. c #5A5965",
"8. c #555469",
"9. c #5C5C6C",
"0. c #4F5775",
"q. c #585575",
"w. c #5A5B71",
"e. c #525A79",
"r. c #595B7E",
"t. c #5D5F7D",
"y. c #754469",
"u. c #76446B",
"i. c #6B4075",
"p. c #6A4375",
"a. c #6D4075",
"s. c #624A77",
"d. c #654977",
"f. c #604E78",
"g. c #644F7A",
"h. c #626264",
"j. c #666569",
"k. c #6A666C",
"l. c #6A676C",
"z. c #68686B",
"x. c #6B6B6E",
"c. c #716B70",
"v. c #716C70",
"b. c #707773",
"n. c #717175",
"m. c #71747E",
"M. c #7B7E7E",
"N. c #843B7A",
"B. c #813E7E",
"V. c #853E7F",
"C. c #883D7E",
"Z. c #54832B",
"A. c #53812C",
"S. c #55832C",
"D. c #57852D",
"F. c #588033",
"G. c #5D8634",
"H. c #648F36",
"J. c #66873C",
"K. c #67873D",
"L. c #669237",
"P. c #6C973C",
"I. c #6D963D",
"U. c #709E3F",
"Y. c #049654",
"T. c #729F40",
"R. c #5B5F82",
"E. c #655F84",
"W. c #676085",
"Q. c #666B83",
"!. c #69678C",
"~. c #69688C",
"^. c #6A708B",
"/. c #727581",
"(. c #6C6C91",
"). c #6D7193",
"_. c #6F7596",
"`. c #707296",
"'. c #707597",
"]. c #777F95",
"[. c #737B98",
"{. c #73799A",
"}. c #747D9A",
"|. c #8A3D80",
" X c #883F83",
".X c #8C3E81",
"XX c #8E3C84",
"oX c #903E85",
"OX c #8E4084",
"+X c #944686",
"@X c #964987",
"#X c #934188",
"$X c #99438B",
"%X c #99438C",
"&X c #9A428D",
"*X c #9C438E",
"=X c #A34D92",
"-X c #A44B94",
";X c #A74D96",
":X c #A75094",
">X c #AA5496",
",X c #AC5697",
"<X c #B3559F",
"1X c #B4569F",
"2X c #7F8083",
"3X c #7B829E",
"4X c #7D859D",
"5X c #7E86A5",
"6X c #7F89A8",
"7X c #838CA6",
"8X c #808AA8",
"9X c #878FAA",
"0X c #8A94B2",
"qX c #8C96B4",
"wX c #9099BB",
"eX c #98A1C2",
/* pixels */
"                                              ",
"                                              ",
"                                              ",
"                                              ",
"                                              ",
"          n.z.                  x.b.          ",
"      qX].2X                      M.4X0X      ",
"    e.eX7XR                     ; / 9XwX0.    ",
"    Y 4.'.:.c.j.              h.x.>.).|       ",
"      } f.[.m.^ =.          ,.( /.}.s.}       ",
"      +.B.!.3X7.k.        - k.9.5XW. XO.      ",
"      [ *X#.~.8X8.&.)   &.&.w.6XW.%.&X'       ",
"      ' XX$X%.g.{.Q.:   > ^._.s.V.$X|.`       ",
"      E C.<X-XOXa.`.q.# t.~.a.#X;X1XN.U       ",
"        O.@X,X-XXX@.R.5.r.#.#X:X>X+XX.        ",
"        * l J 2.-.y...6. .u.-.2.H k $         ",
"          , j m S.K.-.T ;.J.F m j =           ",
"            Q ! t A I.K I.A r ! W             ",
"              I 1 u A F Z i , I               ",
"                % + w y q + %                 ",
"            O 5 N V f Y.g V x 4 O             ",
"            G C 5 z U.L T.u 9 b b             ",
"          2 F.H.S.0 b b x e D.L.G.4           ",
"                a 5 .   X 5 a                 "
};
