/* XPM */
static char *nebta0616771477391677148024[] = {
/* columns rows colors chars-per-pixel */
"23 24 209 2 ",
"   c None",
".  c #172E17",
"X  c #143711",
"o  c #143014",
"O  c #133811",
"+  c #143811",
"@  c #21112F",
"#  c #2F1237",
"$  c #2D1E30",
"%  c #301D35",
"&  c #33163A",
"*  c #35153B",
"=  c #33173C",
"-  c #36173D",
";  c #293E21",
":  c #2A3F22",
">  c #392D37",
",  c #3F2B3E",
"<  c #363631",
"1  c #393933",
"2  c #3A3038",
"3  c #3F313B",
"4  c #3F333B",
"5  c #3C323C",
"6  c #3D313E",
"7  c #204316",
"8  c #204416",
"9  c #2D551B",
"0  c #2D551C",
"q  c #30581D",
"w  c #315A1D",
"e  c #31581E",
"r  c #325A1E",
"t  c #345C1F",
"y  c #1A5221",
"u  c #1B5421",
"i  c #2D4820",
"p  c #2F4821",
"a  c #334029",
"s  c #36402C",
"d  c #355E20",
"f  c #167035",
"g  c #3B6422",
"h  c #3C6722",
"j  c #3D6822",
"k  c #3F6824",
"l  c #3F6924",
"z  c #3F6028",
"x  c #3F6228",
"c  c #266F32",
"v  c #2A6E30",
"b  c #3F7B34",
"n  c #41592B",
"m  c #42592D",
"M  c #406B25",
"N  c #426A26",
"B  c #436F24",
"V  c #436D26",
"C  c #466F26",
"Z  c #457125",
"A  c #457026",
"S  c #4B7627",
"D  c #467028",
"F  c #4A7528",
"G  c #4B7728",
"H  c #4B7629",
"J  c #4B742A",
"K  c #507C2C",
"L  c #517C2C",
"P  c #517D2D",
"I  c #547F2C",
"U  c #446330",
"Y  c #3D1743",
"T  c #3C1840",
"R  c #3F1844",
"E  c #2F334A",
"W  c #383B58",
"Q  c #411B45",
"!  c #441C47",
"~  c #482249",
"^  c #49234A",
"/  c #443041",
"(  c #463844",
")  c #4A3B45",
"_  c #512351",
"`  c #532353",
"'  c #593563",
"]  c #573965",
"[  c #523C66",
"{  c #662B63",
"}  c #6A2D65",
"|  c #793472",
" . c #793572",
".. c #7E3676",
"X. c #7E3776",
"o. c #713E75",
"O. c #793F70",
"+. c #7B3F71",
"@. c #47474A",
"#. c #4C414E",
"$. c #5D4F4D",
"%. c #525047",
"&. c #515149",
"*. c #5C514A",
"=. c #454050",
"-. c #494657",
";. c #4E4850",
":. c #575158",
">. c #5A555A",
",. c #645F4B",
"<. c #674A58",
"1. c #65604D",
"2. c #677F41",
"3. c #76655B",
"4. c #75645C",
"5. c #414462",
"6. c #494561",
"7. c #464E6D",
"8. c #484C6B",
"9. c #4F4D6C",
"0. c #55436D",
"q. c #59596C",
"w. c #5C5E74",
"e. c #5F5F75",
"r. c #5C5D78",
"t. c #585C7F",
"y. c #664274",
"u. c #644676",
"i. c #654776",
"p. c #674676",
"a. c #6A4174",
"s. c #644876",
"d. c #654A78",
"f. c #644E78",
"g. c #62507A",
"h. c #5F606B",
"j. c #5F6271",
"k. c #626068",
"l. c #64626A",
"z. c #68646C",
"x. c #69656C",
"c. c #69696C",
"v. c #62647E",
"b. c #64687F",
"n. c #707072",
"m. c #727274",
"M. c #767477",
"N. c #7B7B7C",
"B. c #7C7C7E",
"V. c #84397C",
"C. c #833C7C",
"Z. c #873C7E",
"A. c #56832D",
"S. c #56842D",
"D. c #58832D",
"F. c #5D8435",
"G. c #628A37",
"H. c #669038",
"J. c #689338",
"K. c #6D963D",
"L. c #6D943E",
"P. c #719F3F",
"I. c #039352",
"U. c #688041",
"Y. c #729F40",
"T. c #595E80",
"R. c #665B83",
"E. c #696389",
"W. c #686B8D",
"Q. c #777A84",
"!. c #707588",
"~. c #72788A",
"^. c #6A6F90",
"/. c #6B7090",
"(. c #717996",
"). c #767E96",
"_. c #72779A",
"`. c #707899",
"'. c #737A9B",
"]. c #747B9B",
"[. c #757C9D",
"{. c #787E9F",
"}. c #8A3C81",
"|. c #8D3D84",
" X c #8E3F85",
".X c #8E4085",
"XX c #934187",
"oX c #944087",
"OX c #96418A",
"+X c #96428B",
"@X c #9A478B",
"#X c #9B448D",
"$X c #9D468E",
"%X c #9D488D",
"&X c #A04890",
"*X c #A34A93",
"=X c #A94E97",
"-X c #AB5098",
";X c #AC5099",
":X c #AE529B",
">X c #B4559F",
",X c #79829E",
"<X c #7C85A2",
"1X c #7C84A4",
"2X c #7E86A6",
"3X c #7E86A8",
"4X c #838BAC",
"5X c #A7B1D1",
"6X c #A8B1D0",
/* pixels */
"                                              ",
"                                              ",
"                                              ",
"                                              ",
"                                              ",
"          c.                    @.m.          ",
"      (.Q.B.                      N.Q.<X      ",
"    4X6Xh.2                       > j.5X3X    ",
"    8.'.r.( n.                  M.) v.^.5.    ",
"    & ] /.!.x.5               6 x.~.W.' *     ",
"    T V.d.3Xw.k.>.          :.l.b.<Xi.V.-     ",
"    # ...Xg.2X).=.#.      ;.-.,X[.i.+X .      ",
"      } +X|.a.E.].q.$   % e.[.R.o.+XXX{       ",
"      ` %X-X$XC.f.'.6.@ 9._.i.Z.$X;X@X`       ",
"      ! X.;X>X$X}.i.T.W t.y.|.*X>X=X .Q       ",
"        / *.1.4.<.+.0.7.[ +.<.3.,.$.,         ",
"        . s n H A.U.&.E ;.2.F.H m s o         ",
"          * ^ 4 x P Y.z Y.P d 6 ^             ",
"              R < l A.S.J k < Y               ",
"              p i 8 y f y 7 : i               ",
"            + q A S c I.v S V 0 X             ",
"            H D q M P.H P.h t V N             ",
"          q F.H.D.t A D V d S.J.G.0           ",
"                j q +   + q h                 "
};
