/* XPM */
static char *nebta0716771477391677148025[] = {
/* columns rows colors chars-per-pixel */
"23 24 217 2 ",
"   c None",
".  c #133610",
"X  c #143711",
"o  c #143811",
"O  c #153811",
"+  c #1D311B",
"@  c #1F311D",
"#  c #28122C",
"$  c #2B142C",
"%  c #381E3A",
"&  c #38183D",
"*  c #3C1F3F",
"=  c #283621",
"-  c #393C31",
";  c #393E31",
":  c #3C3A35",
">  c #3D3C35",
",  c #3D313E",
"<  c #204516",
"1  c #234518",
"2  c #21541F",
"3  c #2C531B",
"4  c #2E561C",
"5  c #2F581C",
"6  c #31591D",
"7  c #325A1D",
"8  c #325B1E",
"9  c #335B1F",
"0  c #335D1E",
"q  c #345C1F",
"w  c #2B4022",
"e  c #2E4123",
"r  c #304922",
"t  c #374E27",
"y  c #394F29",
"u  c #215721",
"i  c #355E20",
"p  c #3F5731",
"a  c #1D6F32",
"s  c #3B6322",
"d  c #3D6822",
"f  c #3E6822",
"g  c #3E6823",
"h  c #266D31",
"j  c #2A6D30",
"k  c #416727",
"l  c #426B25",
"z  c #416827",
"x  c #436D25",
"c  c #436F24",
"v  c #426D26",
"b  c #446F24",
"n  c #456F25",
"m  c #446D27",
"M  c #456F26",
"N  c #456F27",
"B  c #446628",
"V  c #446728",
"C  c #456D28",
"Z  c #467026",
"A  c #487226",
"S  c #517E2B",
"D  c #527F2B",
"F  c #407C35",
"G  c #3D1942",
"H  c #3F1944",
"J  c #2E2E4C",
"K  c #3C274C",
"L  c #31324E",
"P  c #3F2A50",
"I  c #3D3754",
"U  c #441C46",
"Y  c #481E4B",
"T  c #462646",
"R  c #472846",
"E  c #4E204F",
"W  c #413542",
"Q  c #403643",
"!  c #423444",
"~  c #433A43",
"^  c #433A48",
"/  c #502251",
"(  c #512251",
")  c #562355",
"_  c #582456",
"`  c #592F56",
"'  c #413C59",
"]  c #5F335A",
"[  c #682D65",
"{  c #6E3069",
"}  c #7B3474",
"|  c #713D75",
" . c #723D76",
".. c #773C77",
"X. c #7C3B75",
"o. c #793C74",
"O. c #773C78",
"+. c #763F79",
"@. c #47434E",
"#. c #4E4549",
"$. c #4A474E",
"%. c #4C474C",
"&. c #4A4558",
"*. c #4C4A59",
"=. c #504B51",
"-. c #524C53",
";. c #554E57",
":. c #574F56",
">. c #5A4F57",
",. c #504B5F",
"<. c #505053",
"1. c #545056",
"2. c #545356",
"3. c #58575B",
"4. c #677645",
"5. c #677446",
"6. c #434C6B",
"7. c #514069",
"8. c #52456E",
"9. c #48506F",
"0. c #5F5F61",
"q. c #4F5775",
"w. c #535B79",
"e. c #53597A",
"r. c #545A7C",
"t. c #5E597D",
"y. c #704264",
"u. c #704364",
"i. c #724C63",
"p. c #744C64",
"a. c #785862",
"s. c #7A5B64",
"d. c #7F5969",
"f. c #604775",
"g. c #6F4077",
"h. c #644A77",
"j. c #614E79",
"k. c #63527B",
"l. c #63567E",
"z. c #5C6275",
"x. c #5E6476",
"c. c #626366",
"v. c #656367",
"b. c #666668",
"n. c #6B696E",
"m. c #6D6B6F",
"M. c #65697D",
"N. c #803778",
"B. c #823B7E",
"V. c #803D7D",
"C. c #825A6C",
"Z. c #55832C",
"A. c #55812E",
"S. c #57822E",
"D. c #57832F",
"F. c #56842D",
"G. c #5A852F",
"H. c #5C872F",
"J. c #588130",
"K. c #628B37",
"L. c #648E37",
"P. c #679138",
"I. c #689338",
"U. c #6C913F",
"Y. c #709F3F",
"T. c #039151",
"R. c #729F40",
"E. c #655E84",
"W. c #626083",
"Q. c #636681",
"!. c #666B85",
"~. c #696E85",
"^. c #68688B",
"/. c #6A698C",
"(. c #7A7B82",
"). c #797A84",
"_. c #6B6E91",
"`. c #6C6F91",
"'. c #6E7691",
"]. c #717395",
"[. c #707597",
"{. c #737B97",
"}. c #717898",
"|. c #717999",
" X c #73799A",
".X c #873C80",
"XX c #923F86",
"oX c #8E4083",
"OX c #944486",
"+X c #954188",
"@X c #97418A",
"#X c #97418B",
"$X c #98418C",
"%X c #99428C",
"&X c #9B448D",
"*X c #9F478F",
"=X c #A14991",
"-X c #A24893",
";X c #A24A92",
":X c #A44B93",
">X c #B1529E",
",X c #B454A0",
"<X c #B657A1",
"1X c #B857A2",
"2X c #78819B",
"3X c #7C85A0",
"4X c #7B83A5",
"5X c #7E87A5",
"6X c #7F88A4",
"7X c #88888A",
"8X c #8B8B8E",
"9X c #81899F",
"0X c #838CA3",
"qX c #808AA8",
"wX c #828CAA",
"eX c #A0AACA",
"rX c #A1ABCA",
/* pixels */
"                                              ",
"                                              ",
"                                              ",
"                                              ",
"                                              ",
"          <.                      2.          ",
"      z.7Xb.                      v.7XM.      ",
"    eX9X3.                          ;.0XeXw.  ",
"  q.4X6X, :.0.                  c.>.! 5X|.9.  ",
"    P W.Q.).-.                  :.(.!.t.K     ",
"    _  ._.2X@.n.~           Q m.*.5X^.o.)     ",
"    E #Xg.].qXM.Q $.      =.^ ~.wX/.g.@XY     ",
"    U N.#X..k.[.'.&.$   $ ,.{.`.h.V.%X} G     ",
"      { -X-XXX .E.{.I   '  XE.o.#X:X;X[       ",
"      / OX1X>X%XB.j.w.J t.h.B.*X,X,XoX/       ",
"      & ] i.s.d.y.o.8.6.7.g.{ C.a.p.`         ",
"        @ y V D J.5.%.L #.5.J.S B t @         ",
"          * R > l S.R.y R.D z : T %           ",
"              H ; N G.H.S B : H               ",
"              e = < 2 a u 1 = r               ",
"            o 5 b A h T.j N c 3 .             ",
"            C N 9 d Y.F Y.s q l C             ",
"          9 K.P.Z.0 Z N N q F.I.L.4           ",
"                d 9 .   O 9 d                 "
};
