/* XPM */
static char *nebta0816771477391677148025[] = {
/* columns rows colors chars-per-pixel */
"23 24 215 2 ",
"   c None",
".  c #143711",
"X  c #143811",
"o  c #153911",
"O  c #253520",
"+  c #273522",
"@  c #2D3E23",
"#  c #2F3D25",
"$  c #2A3028",
"%  c #2D3429",
"&  c #332230",
"*  c #352536",
"=  c #3A2432",
"-  c #39273A",
";  c #372F3A",
":  c #43313F",
">  c #264B19",
",  c #2C541B",
"<  c #2D551C",
"1  c #2F581C",
"2  c #325B1D",
"3  c #335A1E",
"4  c #325B1E",
"5  c #335C1E",
"6  c #335D1E",
"7  c #345D1F",
"8  c #38412E",
"9  c #39452E",
"0  c #295A20",
"q  c #2A5C21",
"w  c #355E20",
"e  c #3F562C",
"r  c #3D4730",
"t  c #374831",
"y  c #3D4830",
"u  c #276B2F",
"i  c #276F2F",
"p  c #2C6C2E",
"a  c #3A6322",
"s  c #3D6722",
"d  c #3E6822",
"f  c #3F6923",
"g  c #3F7D34",
"h  c #40582D",
"j  c #406825",
"k  c #426D24",
"l  c #426C25",
"z  c #436E25",
"x  c #426C26",
"c  c #436D26",
"v  c #436F26",
"b  c #456F25",
"n  c #446D27",
"m  c #456E27",
"M  c #456F27",
"N  c #496E2A",
"B  c #4A6F2B",
"V  c #457025",
"C  c #447026",
"Z  c #467026",
"A  c #477126",
"S  c #577F31",
"D  c #587933",
"F  c #587E31",
"G  c #3E1743",
"H  c #3F1B44",
"J  c #272441",
"K  c #322A46",
"L  c #372D4B",
"P  c #3E3347",
"I  c #3F364A",
"U  c #323250",
"Y  c #333351",
"T  c #3B3D5A",
"R  c #421B45",
"E  c #421C45",
"W  c #421D46",
"Q  c #441D46",
"!  c #441A48",
"~  c #4C204D",
"^  c #433140",
"/  c #443B44",
"(  c #453B46",
")  c #443E47",
"_  c #4B3F4F",
"`  c #4C3D4F",
"'  c #502251",
"]  c #552455",
"[  c #602A5E",
"{  c #612D62",
"}  c #672D64",
"|  c #652E64",
" . c #72306C",
".. c #73316D",
"X. c #72366C",
"o. c #7A3C6F",
"O. c #783770",
"+. c #763A75",
"@. c #793C70",
"#. c #7B3A77",
"$. c #7F3877",
"%. c #763C78",
"&. c #7C3C7A",
"*. c #3C4563",
"=. c #49474C",
"-. c #4C454E",
";. c #4C454F",
":. c #4E474F",
">. c #59575B",
",. c #5A585C",
"<. c #67694A",
"1. c #676A4A",
"2. c #4F446B",
"3. c #50496E",
"4. c #524C6F",
"5. c #555361",
"6. c #575667",
"7. c #595462",
"8. c #5C5969",
"9. c #59596C",
"0. c #4D5372",
"q. c #4E5374",
"w. c #5B5D71",
"e. c #575578",
"r. c #5E5179",
"t. c #605C62",
"y. c #664776",
"u. c #694174",
"i. c #6C4176",
"p. c #684677",
"a. c #604F79",
"s. c #63517A",
"d. c #61557D",
"f. c #60577F",
"g. c #5F6170",
"h. c #686569",
"j. c #6A686B",
"k. c #636577",
"l. c #707178",
"z. c #767678",
"x. c #70737C",
"c. c #76787F",
"v. c #7A7A7B",
"b. c #813979",
"n. c #833C7E",
"m. c #8B4B7C",
"M. c #8C4C7C",
"N. c #875077",
"B. c #8B5078",
"V. c #8D5578",
"C. c #91577C",
"Z. c #54822C",
"A. c #57852D",
"S. c #5A8731",
"D. c #5D8731",
"F. c #5D8832",
"G. c #5C8833",
"H. c #5F8A34",
"J. c #658D39",
"K. c #67883F",
"L. c #68893E",
"P. c #669038",
"I. c #679238",
"U. c #699439",
"Y. c #70A03E",
"T. c #038C4D",
"R. c #719E41",
"E. c #645A81",
"W. c #696087",
"Q. c #656A80",
"!. c #69668B",
"~. c #6B698D",
"^. c #696D8D",
"/. c #6A718A",
"(. c #6B708F",
"). c #69738E",
"_. c #727580",
"`. c #7F7D80",
"'. c #7D7D82",
"]. c #6D6E92",
"[. c #6D7293",
"{. c #6E7694",
"}. c #777D95",
"|. c #727A99",
" X c #72799A",
".X c #767EA0",
"XX c #853F81",
"oX c #893D81",
"OX c #883E82",
"+X c #8F3F85",
"@X c #933F88",
"#X c #8D4085",
"$X c #954189",
"%X c #97418B",
"&X c #98438A",
"*X c #98428B",
"=X c #9B458D",
"-X c #9D468F",
";X c #9F4890",
":X c #A44D93",
">X c #A94F97",
",X c #A94E98",
"<X c #AD509A",
"1X c #B858A2",
"2X c #B958A3",
"3X c #7A839E",
"4X c #7B84A3",
"5X c #7C85A2",
"6X c #7C85A6",
"7X c #7E86A7",
"8X c #818BAA",
"9X c #8892AE",
"0X c #8D98B4",
"qX c #9DA7C7",
"wX c #A1AACC",
/* pixels */
"                                              ",
"                                              ",
"                                              ",
"                                              ",
"                                              ",
"                                              ",
"      l.z.                          v._.      ",
"  ).9X_.,.                          :.x.0X{.  ",
"  6XwX9.; 1.                      t.= w.qX.X  ",
"  T r.!.6.XX                    ; '.8.).4.Y   ",
"    } E.5Xg.-.h.              h.;.k.4Xa.}     ",
"    ..E.Q.7X}.5./ =.      ) / 6.3X7Xs.#X .    ",
"    ] %XOXy.~. Xk.I       ( ^. XW.u.+X@X'     ",
"    R b.-X*XXXy.[.^.K   L [.!.i.oX=X;X$.W     ",
"      } ,X2X,X@X%.E.0.J q.r.&.%X<X2X:X[       ",
"      ~ O.m.C.N.@.+.3.*.2.#.@.B.V.m.X.Q       ",
"        % h N S D 1._ U _ 1.D S N e $         ",
"          - ^ y C G.K.t K.S.n y : *           ",
"            ! W t C H.S.D.c 8 H G             ",
"              # + > 1 i 0 > + @               ",
"            o 1 C Z u T.p Z c ,               ",
"            j c 5 d Y.g R.a 5 c n             ",
"          3 J.I.Z.5 Z Z c w A.U.I.<           ",
"                d 3 X   X 3 s                 "
};
