/* XPM */
static char *nebta0916771477391677148025[] = {
/* columns rows colors chars-per-pixel */
"23 24 218 2 ",
"   c None",
".  c #172918",
"X  c #192D19",
"o  c #133711",
"O  c #143811",
"+  c #201F3A",
"@  c #34163A",
"#  c #38163D",
"$  c #283623",
"%  c #2B3725",
"&  c #2D3527",
"*  c #273822",
"=  c #2A203D",
"-  c #2D223F",
";  c #342538",
":  c #372639",
">  c #3C2D3A",
",  c #343230",
"<  c #353532",
"1  c #303C30",
"2  c #3F3D36",
"3  c #39333B",
"4  c #3E323B",
"5  c #402D3C",
"6  c #44363F",
"7  c #403C38",
"8  c #2B531A",
"9  c #2D531C",
"0  c #2D531D",
"q  c #2D541C",
"w  c #2F571C",
"e  c #31591D",
"r  c #32591E",
"t  c #325A1E",
"y  c #335C1E",
"u  c #345C1F",
"i  c #38472C",
"p  c #394A2D",
"a  c #355E20",
"s  c #3E552B",
"d  c #28682D",
"f  c #2E692C",
"g  c #326022",
"h  c #326123",
"j  c #3A6222",
"k  c #3B6223",
"l  c #3D6722",
"z  c #3F6725",
"x  c #3F6823",
"c  c #30702D",
"v  c #40582B",
"b  c #4F5739",
"n  c #4C573A",
"m  c #416A25",
"M  c #426B26",
"N  c #416D24",
"B  c #436D25",
"V  c #426E24",
"C  c #456F27",
"Z  c #457025",
"A  c #467026",
"S  c #477126",
"D  c #467127",
"F  c #4A7528",
"G  c #4A7728",
"H  c #506D31",
"J  c #536F33",
"K  c #586E38",
"L  c #5A6D3A",
"P  c #407D35",
"I  c #5D7A38",
"U  c #617E3D",
"Y  c #3E1A42",
"T  c #3F1D42",
"R  c #3B1D44",
"E  c #392046",
"W  c #303150",
"Q  c #333B57",
"!  c #401845",
"~  c #451B47",
"^  c #451B49",
"/  c #402044",
"(  c #443741",
")  c #413A45",
"_  c #453D49",
"`  c #473F4D",
"'  c #542354",
"]  c #562556",
"[  c #582557",
"{  c #5A2659",
"}  c #493852",
"|  c #4B3952",
" . c #5C3E6B",
".. c #70306B",
"X. c #783371",
"o. c #7A3672",
"O. c #723B75",
"+. c #763976",
"@. c #713D76",
"#. c #733E77",
"$. c #753E78",
"%. c #793C79",
"&. c #3B4461",
"*. c #464148",
"=. c #4A434C",
"-. c #4B4C4F",
";. c #4A4451",
":. c #4C4653",
">. c #4C455B",
",. c #525256",
"<. c #585359",
"1. c #5B555B",
"2. c #59565B",
"3. c #685B50",
"4. c #695A52",
"5. c #404764",
"6. c #4C476C",
"7. c #474B6B",
"8. c #474D6B",
"9. c #4D4A6E",
"0. c #524F65",
"q. c #5A436D",
"w. c #5D5B61",
"e. c #5A5D6F",
"r. c #5C5C7B",
"t. c #585B7D",
"y. c #5E597E",
"u. c #694375",
"i. c #6C4074",
"p. c #6D4276",
"a. c #654876",
"s. c #644C79",
"d. c #64567E",
"f. c #66567F",
"g. c #5F6360",
"h. c #676469",
"j. c #686169",
"k. c #6C666C",
"l. c #6F6F6D",
"z. c #61657A",
"x. c #767679",
"c. c #797B7A",
"v. c #787A7B",
"b. c #813978",
"n. c #823A78",
"m. c #823B78",
"M. c #843A7C",
"N. c #873A7E",
"B. c #8A3E7F",
"V. c #8E487F",
"C. c #55832C",
"Z. c #57842D",
"A. c #5B8333",
"S. c #5B8631",
"D. c #5F8B33",
"F. c #608C35",
"G. c #628D36",
"H. c #64813F",
"J. c #649036",
"K. c #669038",
"L. c #67903A",
"P. c #699438",
"I. c #719E3F",
"U. c #709F3F",
"Y. c #058749",
"T. c #605F82",
"R. c #5D6583",
"E. c #5D6584",
"W. c #626583",
"Q. c #686186",
"!. c #6A6F81",
"~. c #63698A",
"^. c #6E7081",
"/. c #6E7789",
"(. c #6B728F",
"). c #717688",
"_. c #6C7192",
"`. c #6C7592",
"'. c #6F7396",
"]. c #6D7594",
"[. c #6E7895",
"{. c #717496",
"}. c #777E90",
"|. c #717897",
" X c #737699",
".X c #73789A",
"XX c #767D99",
"oX c #757B9D",
"OX c #757C9C",
"+X c #787FA1",
"@X c #8A3D81",
"#X c #8E3D83",
"$X c #8D3E83",
"%X c #8F3E84",
"&X c #903F85",
"*X c #8F4183",
"=X c #904981",
"-X c #99428B",
";X c #99438D",
":X c #9C438E",
">X c #9B448D",
",X c #9F4E8E",
"<X c #A0558D",
"1X c #A4568F",
"2X c #A14891",
"3X c #A24F90",
"4X c #A54B94",
"5X c #AF539B",
"6X c #B1549D",
"7X c #B4559F",
"8X c #798096",
"9X c #7981A1",
"0X c #7E87A4",
"qX c #818183",
"wX c #858EA7",
"eX c #8790A8",
"rX c #A5AFCE",
"tX c #A5AFCF",
/* pixels */
"                                              ",
"                                              ",
"                                              ",
"                                              ",
"                                              ",
"                                              ",
"      x.,.                          h.v.      ",
"  `.!.qX                              v./.[.  ",
"R.rXwX) >                         -.5 ( eXtXE.",
"5.~.9X>.j.l.                      h.k.0.oXt.&.",
"  E q.].}.;.1.1.              w.2.:.8X_. .T   ",
"  ~ M.a.+XXX!._ *.        3 =.` ).0X Xi.M.    ",
"    X.;Xp.Q.OX(.e.:       : z.|.{.f.$.;X..    ",
"    { &X-X@X@.f. Xr.=   - W.'.s.%.&X>X#X'     ",
"    Y b.6X5X2X#Xi.R.8.+ 7.y.@.&X4X7X6Xo.Y     ",
"      [ *X3X1XV.b.O.9.Q 6.+.n.=X<X,XB.]       ",
"      @ 6 b J I L 4.} W } 3.K I H n 4         ",
"        X < 2 v G G.U 1 H.G.G s 2 , .         ",
"            ^ / p Z J.S.G.V i T !             ",
"              & $ 0 h c a q * %               ",
"            o w V Z d Y.f Z N 8               ",
"            k M y x U.P U.k u M z             ",
"          r L.P.C.y Z Z B u Z.L.A.w           ",
"                x r O   O y l                 "
};
