/* XPM */
static char *nebta1016771477391677148025[] = {
/* columns rows colors chars-per-pixel */
"23 24 224 2 ",
"   c None",
".  c #1B2D1B",
"X  c #1E2C1E",
"o  c #133610",
"O  c #133710",
"+  c #143711",
"@  c #153911",
"#  c #26142F",
"$  c #2B1933",
"%  c #311F30",
"&  c #36133D",
"*  c #37123E",
"=  c #38163F",
"-  c #302A2F",
";  c #322E2F",
":  c #352736",
">  c #362737",
",  c #3D2F3C",
"<  c #2A3037",
"1  c #383D32",
"2  c #3C323B",
"3  c #2D551B",
"4  c #2E561C",
"5  c #31591D",
"6  c #315A1D",
"7  c #315A1E",
"8  c #325A1E",
"9  c #345D1E",
"0  c #345C1F",
"q  c #355E1F",
"w  c #0D5426",
"e  c #0E5427",
"r  c #3F4E2F",
"t  c #355F20",
"y  c #3C532B",
"u  c #3C562A",
"i  c #3A4131",
"p  c #386121",
"a  c #3A6323",
"s  c #3B6422",
"d  c #3D6524",
"f  c #3F6725",
"g  c #3D6822",
"h  c #3E6922",
"j  c #267034",
"k  c #2C7333",
"l  c #404B2F",
"z  c #406924",
"x  c #416A25",
"c  c #426B26",
"v  c #416C25",
"b  c #436D25",
"n  c #436D26",
"m  c #446F24",
"M  c #456F26",
"N  c #456828",
"B  c #466B29",
"V  c #437027",
"C  c #467026",
"Z  c #4B7527",
"A  c #467529",
"S  c #497428",
"D  c #497529",
"F  c #4D7728",
"G  c #517F2B",
"H  c #407A32",
"J  c #557C30",
"K  c #3C1A40",
"L  c #3F1943",
"P  c #3F1A43",
"I  c #37274A",
"U  c #3B2C4F",
"Y  c #313451",
"T  c #353B59",
"R  c #3D3D5C",
"E  c #421C45",
"W  c #461C48",
"Q  c #481E4A",
"!  c #4B1F4C",
"~  c #4C1E4C",
"^  c #432A42",
"/  c #442942",
"(  c #4A204B",
")  c #43394A",
"_  c #51364B",
"`  c #56374F",
"'  c #592658",
"]  c #5E295C",
"[  c #5F295E",
"{  c #4A3F52",
"}  c #4A375B",
"|  c #49395C",
" . c #632B60",
".. c #693E74",
"X. c #7B3573",
"o. c #753873",
"O. c #753D77",
"+. c #7A3876",
"@. c #7B3D79",
"#. c #7E3C7B",
"$. c #3F4160",
"%. c #4B404A",
"&. c #4A414B",
"*. c #4D434E",
"=. c #4E444F",
"-. c #565445",
";. c #575447",
":. c #5C5B45",
">. c #5E5B48",
",. c #4B435E",
"<. c #514B53",
"1. c #504D52",
"2. c #584D55",
"3. c #5B4F56",
"4. c #535356",
"5. c #565058",
"6. c #565259",
"7. c #54525E",
"8. c #59515A",
"9. c #5A565C",
"0. c #586841",
"q. c #5C6940",
"w. c #5B6D41",
"e. c #606A43",
"r. c #636C45",
"t. c #656F45",
"y. c #474F6D",
"u. c #534D69",
"i. c #4A526F",
"p. c #565664",
"a. c #594C73",
"s. c #4D5173",
"d. c #4E5072",
"f. c #4F5875",
"g. c #595A72",
"h. c #5B5479",
"j. c #6E4A60",
"k. c #6F4A61",
"l. c #644073",
"z. c #654776",
"x. c #694576",
"c. c #644976",
"v. c #634F79",
"b. c #664C78",
"n. c #615179",
"m. c #64507A",
"M. c #63587F",
"N. c #5B606F",
"B. c #606166",
"V. c #646366",
"C. c #69696B",
"Z. c #6B6A6D",
"A. c #686A74",
"S. c #686A75",
"D. c #606379",
"F. c #626779",
"G. c #60637E",
"H. c #813778",
"J. c #853B7B",
"K. c #863B7E",
"L. c #813C7C",
"P. c #883A7F",
"I. c #883C7E",
"U. c #51802B",
"Y. c #55832C",
"T. c #57852D",
"R. c #648B38",
"E. c #648B39",
"W. c #679039",
"Q. c #679139",
"!. c #689438",
"~. c #699439",
"^. c #6A943A",
"/. c #6A953A",
"(. c #729F3F",
"). c #098648",
"_. c #039653",
"`. c #709E40",
"'. c #6A6E86",
"]. c #686489",
"[. c #666B8E",
"{. c #696E8C",
"}. c #737682",
"|. c #747886",
" X c #686E90",
".X c #6D6D91",
"XX c #6C7291",
"oX c #717396",
"OX c #737B9B",
"+X c #747D9C",
"@X c #787E9F",
"#X c #913F86",
"$X c #8A4084",
"%X c #914087",
"&X c #934486",
"*X c #944587",
"=X c #904188",
"-X c #954088",
";X c #954189",
":X c #964289",
">X c #99438B",
",X c #99478B",
"<X c #9E4A8E",
"1X c #A24A92",
"2X c #A64D95",
"3X c #AA5098",
"4X c #AC5299",
"5X c #AD5399",
"6X c #AD5599",
"7X c #AF549C",
"8X c #B2569D",
"9X c #7980A2",
"0X c #7A84A1",
"qX c #7C85A3",
"wX c #7D86A5",
"eX c #7E87A6",
"rX c #8B8C8E",
"tX c #81889E",
"yX c #878FA8",
"uX c #838CAC",
"iX c #858EAD",
"pX c #848CAE",
"aX c #99A2C2",
"sX c #9DA7C5",
/* pixels */
"                                              ",
"                                              ",
"                                              ",
"                                              ",
"                                              ",
"      B.1.                          6.C.      ",
"    N.rX                              rXF.    ",
"  sXtX6.                            % <.yXaXf.",
"i.pXiX) 2.V.                      Z.2.*.uX@Xy.",
"  U h.{.}.6.&.                9.{ 8.|.XXa.I   ",
"  ~ o.M.eXD.S.*.2           , =.S.'.eXn.+.W   ",
"    H.$Xb.@X0Xg.7.:       : p.G.qXoXz.=XX.    ",
"    [ :X=XO.b..XOX,.#   $ u.OX].x.#.:X#X'     ",
"    Q J.3X1X:X@.m. XR   y.].z.#.,X2X3XJ.E     ",
"       .<X8X5X&XK.l.d.Y d...J.&X5X7X,X[       ",
"      E ` -.e.r.>.j.| T } j.:.r.q.-._ K       ",
"        X 1 l B G E.0.< w.E.G N l 1 .         ",
"          E ( ^ u D /.J ~.D u / ~ =           ",
"              & ; s M G z p - *               ",
"                    e ).e                     ",
"            @ 6 m Z j _.k F n 3 +             ",
"            d n 7 z (.k (.s 6 x z             ",
"          q Q./.Y.q M C M t T./.W.4           ",
"                g 7 O   + 7 g                 "
};
