/* XPM */
static char *nebta1116771477391677148025[] = {
/* columns rows colors chars-per-pixel */
"23 24 219 2 ",
"   c None",
".  c #133710",
"X  c #143811",
"o  c #163912",
"O  c #173A12",
"+  c #1F1934",
"@  c #2A1B39",
"#  c #2B1D3A",
"$  c #301237",
"%  c #33183A",
"&  c #391A3E",
"*  c #212125",
"=  c #242128",
"-  c #302332",
";  c #352131",
":  c #302630",
">  c #362439",
",  c #372539",
"<  c #393536",
"1  c #3A3536",
"2  c #412D3D",
"3  c #412C3E",
"4  c #41353B",
"5  c #41363B",
"6  c #2E541D",
"7  c #2F561C",
"8  c #30571E",
"9  c #30591D",
"0  c #325A1E",
"q  c #335B1E",
"w  c #345B1F",
"e  c #335C1E",
"r  c #355D1F",
"t  c #0B592B",
"y  c #0B5E2F",
"u  c #3D4B2E",
"i  c #325E21",
"p  c #375F20",
"a  c #3F512E",
"s  c #3F562C",
"d  c #324333",
"f  c #3D4830",
"g  c #076B38",
"h  c #356121",
"j  c #346726",
"k  c #3C6523",
"l  c #3E6524",
"z  c #3D6822",
"x  c #3F6924",
"c  c #277134",
"v  c #2D7234",
"b  c #40532F",
"n  c #40572C",
"m  c #406B23",
"M  c #416825",
"N  c #436D26",
"B  c #446D26",
"V  c #446E26",
"C  c #466F26",
"Z  c #4D6D2F",
"A  c #457025",
"S  c #457026",
"D  c #457126",
"F  c #467226",
"G  c #487428",
"H  c #4B7528",
"J  c #4A7628",
"K  c #4E7829",
"L  c #417630",
"P  c #517130",
"I  c #597037",
"U  c #597C33",
"Y  c #5A7C35",
"T  c #597338",
"R  c #3C1941",
"E  c #3F1A43",
"W  c #352245",
"Q  c #3B2449",
"!  c #333856",
"~  c #353C59",
"^  c #491D4A",
"/  c #481E4B",
"(  c #491E4C",
")  c #472448",
"_  c #49234A",
"`  c #403440",
"'  c #423A41",
"]  c #473B4F",
"[  c #552555",
"{  c #572657",
"}  c #5A2759",
"|  c #473B53",
" . c #70306B",
".. c #6E3B73",
"X. c #6E3C74",
"o. c #773371",
"O. c #7B3674",
"+. c #7F3878",
"@. c #7F3979",
"#. c #4B424D",
"$. c #4E434C",
"%. c #4C464F",
"&. c #4D4750",
"*. c #4C4751",
"=. c #4B4358",
"-. c #534853",
";. c #534C56",
":. c #574F59",
">. c #535056",
",. c #5E535B",
"<. c gray35",
"1. c #5D5C5F",
"2. c #675F4F",
"3. c #685C50",
"4. c #60535A",
"5. c #454867",
"6. c #444C6A",
"7. c #494F6E",
"8. c #514C62",
"9. c #57406A",
"0. c #57466F",
"q. c #5D5960",
"w. c #585969",
"e. c #5D5E6E",
"r. c #4E4D70",
"t. c #4E4E71",
"y. c #585573",
"u. c #5C5B78",
"i. c #664675",
"p. c #6A4175",
"a. c #6F4076",
"s. c #6C4276",
"d. c #684476",
"f. c #684576",
"g. c #624C78",
"h. c #704075",
"j. c #65597F",
"k. c #6C6B6E",
"l. c #6A6B70",
"z. c #6E6D70",
"x. c #646A7F",
"c. c #696D7B",
"v. c #6B6E7E",
"b. c #767477",
"n. c #803B76",
"m. c #813C77",
"M. c #813978",
"N. c #833D7E",
"B. c #834776",
"V. c #854877",
"C. c #8A417F",
"Z. c #54822B",
"A. c #57852D",
"S. c #5D8933",
"D. c #5F8933",
"F. c #5F8A34",
"G. c #5F8B34",
"H. c #648E36",
"J. c #63803F",
"K. c #65843F",
"L. c #688F3A",
"P. c #649035",
"I. c #689438",
"U. c #699438",
"Y. c #729E3F",
"T. c #729F3F",
"R. c #07864A",
"E. c #059150",
"W. c #03A45D",
"Q. c #675E85",
"!. c #626387",
"~. c #666C80",
"^. c #656A85",
"/. c #64678A",
"(. c #696389",
"). c #666B8D",
"_. c #6A708C",
"`. c #70758F",
"'. c #757A8A",
"]. c #757C8F",
"[. c #6D6D90",
"{. c #6A7191",
"}. c #6C7391",
"|. c #707799",
" X c #737A9B",
".X c #757B9B",
"XX c #767D99",
"oX c #767C9D",
"OX c #787EA0",
"+X c #883D80",
"@X c #883E81",
"#X c #8B3E82",
"$X c #8C3D81",
"%X c #8F3E84",
"&X c #8C4380",
"*X c #95428B",
"=X c #97428B",
"-X c #99428C",
";X c #9A438D",
":X c #9C458E",
">X c #995187",
",X c #9B5388",
"<X c #9D5889",
"1X c #9E5889",
"2X c #9F4890",
"3X c #AB4F99",
"4X c #AE519B",
"5X c #AE539B",
"6X c #AF539C",
"7X c #7982A1",
"8X c #7B83A3",
"9X c #7D85A7",
"0X c #7F88A9",
"qX c #848587",
"wX c #8B8C8C",
"eX c #8891AA",
"rX c #8F98B3",
"tX c #9FA8C8",
"yX c #A1ABCA",
/* pixels */
"                                              ",
"                                              ",
"                                              ",
"                                              ",
"      l.<.                          1.z.      ",
"    ~.wX                              qXx.    ",
"  yXeX&.                            ; %.rXtX  ",
"6.|.0X=.4.k.                      b.,.8.9X).7.",
"  W 0.}.'.;.-.q.              >.$.,.].}.9.Q   ",
"  ^ @.g.8X`.c.$.'           Q &.v.XXoXi.@.    ",
"    o.=Xf.[.7X^.w.,       - e.`.oX(.s.;X .    ",
"    { %X=XN.s.Q..Xy.@   # e.7Xj.X.#X-X#X[     ",
"    E M.6X4X:XN.f./.5.+ 5.!.p.#X2X5X6XO.R     ",
"      } &X,X<XB.m...t.~ r...@.V.,X,XC.[       ",
"      & 1 n P U I 3.| ! ] 2.T U Z s 1 %       ",
"        = 2 5 b J G.J.d K.S.G a 5 2 *         ",
"            ( ) u V P.D.D.D f _ (             ",
"              $ : q h j i 6 -                 ",
"                    y R.t                     ",
"                    g W.g                     ",
"            O q D H c E.v K N q O             ",
"            M N q z T.L Y.k e N l             ",
"          p L.U.Z.w D V V r A.U.H.6           ",
"                m q .   . q z                 "
};
