/* XPM */
static char *nebta1216771477391677148025[] = {
/* columns rows colors chars-per-pixel */
"23 24 221 2 ",
"   c None",
".  c #152F14",
"X  c #133711",
"o  c #143711",
"O  c #173B12",
"+  c #211C38",
"@  c #35153B",
"#  c #39173E",
"$  c #262D25",
"%  c #262428",
"&  c #33372B",
"*  c #31392A",
"=  c #2D213C",
"-  c #2F233E",
";  c #362035",
":  c #3B2532",
">  c #3B223D",
",  c #3A273D",
"<  c #333D34",
"1  c #3E303F",
"2  c #43303E",
"3  c #2E551D",
"4  c #30581D",
"5  c #31591D",
"6  c #315A1D",
"7  c #325A1E",
"8  c #335B1F",
"9  c #345B1F",
"0  c #335C1E",
"q  c #355D1F",
"w  c #0C5629",
"e  c #0D582A",
"r  c #374F29",
"t  c #394B2B",
"y  c #355F20",
"u  c #076535",
"i  c #076635",
"p  c #096B38",
"a  c #08703C",
"s  c #376322",
"d  c #3A6622",
"f  c #3C6523",
"g  c #3C6622",
"h  c #3E6922",
"j  c #3A6925",
"k  c #276F32",
"l  c #2C6F32",
"z  c #415F29",
"x  c #424635",
"c  c #404833",
"v  c #406924",
"b  c #426A26",
"n  c #436E24",
"m  c #436D26",
"M  c #456F27",
"N  c #466F28",
"B  c #457125",
"V  c #457126",
"C  c #467026",
"Z  c #467126",
"A  c #477126",
"S  c #40712E",
"D  c #487029",
"F  c #4B7528",
"G  c #4B7628",
"H  c #4D7A29",
"J  c #4D7B2A",
"K  c #59663D",
"L  c #5A663E",
"P  c #556938",
"I  c #556B38",
"U  c #60743E",
"Y  c #647F3F",
"T  c #3D2240",
"R  c #3B2045",
"E  c #3C244B",
"W  c #353655",
"Q  c #411945",
"!  c #421B46",
"~  c #433240",
"^  c #433842",
"/  c #433A43",
"(  c #4F2150",
")  c #532354",
"_  c #552555",
"`  c #4F3656",
"'  c #4E3756",
"]  c #583A66",
"[  c #583E6A",
"{  c #682C64",
"}  c #6E2F6A",
"|  c #74336E",
" . c #6F3D75",
".. c #6D3F75",
"X. c #7A3573",
"o. c #7F3777",
"O. c #733E77",
"+. c #763A78",
"@. c #773B78",
"#. c #763D78",
"$. c #773F79",
"%. c #3A425F",
"&. c #097B42",
"*. c #3D4562",
"=. c #49414C",
"-. c #4D444C",
";. c #4B4A4E",
":. c #565542",
">. c #545840",
",. c #4A4653",
"<. c #4D4450",
"1. c #544B53",
"2. c #514957",
"3. c #574B57",
"4. c #524C57",
"5. c #56525F",
"6. c #5D5458",
"7. c #5B585E",
"8. c #5D595F",
"9. c #6B5457",
"0. c #6A5358",
"q. c #627B40",
"w. c #404965",
"e. c #484B6C",
"r. c #4F4A6F",
"t. c #4A4D6E",
"y. c #534D64",
"u. c #5F5F61",
"i. c #4B5270",
"p. c #595470",
"a. c #575F7E",
"s. c #5A5F7F",
"d. c #635960",
"f. c #674576",
"g. c #6D4176",
"h. c #6F4077",
"j. c #654F7B",
"k. c #65547E",
"l. c #65587F",
"z. c #5F6172",
"x. c #646769",
"c. c #606376",
"v. c #706D72",
"b. c #737275",
"n. c #727179",
"m. c #7B787C",
"M. c #81387A",
"N. c #873B7D",
"B. c #893D7E",
"V. c #8A3C7F",
"C. c #55822C",
"Z. c #57852D",
"A. c #5F8834",
"S. c #608935",
"D. c #608B34",
"F. c #618D34",
"G. c #638C36",
"H. c #618738",
"J. c #669236",
"K. c #679337",
"L. c #689238",
"P. c #719D3E",
"I. c #07864A",
"U. c #03A05B",
"Y. c #02A65E",
"T. c #749F40",
"R. c #5F5C81",
"E. c #605E83",
"W. c #695E84",
"Q. c #5F6587",
"!. c #616180",
"~. c #636483",
"^. c #666F8D",
"/. c #696C8E",
"(. c #6D7282",
"). c #6A7285",
"_. c #6E7386",
"`. c #66718C",
"'. c #6D758A",
"]. c #6B7191",
"[. c #6D7390",
"{. c #6E7594",
"}. c #707394",
"|. c #777E91",
" X c #777E96",
".X c #707598",
"XX c #717699",
"oX c #737899",
"OX c #757B9D",
"+X c #757C9E",
"@X c #8C3D81",
"#X c #8C3F81",
"$X c #8C3E82",
"%X c #8F3E84",
"&X c #8E3F84",
"*X c #903F85",
"=X c #99438C",
"-X c #9A438E",
";X c #9A448C",
":X c #9C448F",
">X c #974988",
",X c #9A4C8A",
"<X c #A24992",
"1X c #A34A93",
"2X c #A64F94",
"3X c #A75095",
"4X c #A95495",
"5X c #A95595",
"6X c #AE539B",
"7X c #AF549B",
"8X c #AF529C",
"9X c #B1549C",
"0X c #78819D",
"qX c #7A81A2",
"wX c #7D85A3",
"eX c #818281",
"rX c #808382",
"tX c #8E98B1",
"yX c #96A0BD",
"uX c #99A3C3",
"iX c #A0A9CA",
/* pixels */
"                                              ",
"                                              ",
"                                              ",
"      b.u.                          x.n.      ",
"  ^.).eX                              eX'.`.  ",
"a.iXtX=.; ;.                      3.: ,.yXuXi.",
"*.Q.qXy.d.v.                      m.6.p.+Xs.w.",
"  E [ ].|.4.1.8.              7.-.5. X/.] R   ",
"    M.f.OX0X(.<./           / 2.).wX{...M.    ",
"    } =Xh.W.OX[.z.,       1 c.{..Xk.$.:X{     ",
"    ) #X=X#XO.k.XX!.=   - !..Xj.#.>X;XN.(     ",
"    # X.8X8X<X%X..E.e.+ t.E...*X<X9X6X| @     ",
"      _ #X2X4X>XN.+.r.%.r.+.N.,X4X3XB.)       ",
"        ~ >.I U L 0.` W ` 9.L U I :.2         ",
"        . & x z H G.Y < q.D.H z c * .         ",
"            Q > r A J.D.G.M t > Q             ",
"                $ y d j s 9 %                 ",
"                    w &.e                     ",
"                    a U.p                     ",
"                    u Y.i                     ",
"            O 8 B F k I.l F n 8 o             ",
"            D N 8 h P.S P.f 8 M b             ",
"          y H.L.C.8 M A m q Z.K.D.3           ",
"                h 8 o   X 8 g                 "
};
