/* XPM */
static char *nebta1316771477391677148025[] = {
/* columns rows colors chars-per-pixel */
"23 24 223 2 ",
"   c None",
".  c #143811",
"X  c #153811",
"o  c #153911",
"O  c #1C321A",
"+  c #1D331A",
"@  c #211C38",
"#  c #2E1E3A",
"$  c #2E1F3B",
"%  c #381F32",
"&  c #331539",
"*  c #37163C",
"=  c #38163D",
"-  c #263323",
";  c #273026",
":  c #362030",
">  c #342E32",
",  c #362F33",
"<  c #39273A",
"1  c #3A203D",
"2  c #3B223C",
"3  c #342F3C",
"4  c #3B2B3F",
"5  c #40303D",
"6  c #2B521B",
"7  c #2C521B",
"8  c #2E551C",
"9  c #30581D",
"0  c #31591D",
"q  c #325A1E",
"w  c #345D1E",
"e  c #345C1F",
"r  c #145022",
"t  c #155123",
"y  c #314F21",
"u  c #325022",
"i  c #365E20",
"p  c #395A25",
"a  c #3A5826",
"s  c #076635",
"d  c #076735",
"f  c #0A6634",
"g  c #096A37",
"h  c #086F3B",
"j  c #116935",
"k  c #3A6322",
"l  c #3C6323",
"z  c #3B6621",
"x  c #3C6621",
"c  c #3C6523",
"v  c #3F6923",
"b  c #296D31",
"n  c #2B6C30",
"m  c #426D25",
"M  c #436E24",
"N  c #446D26",
"B  c #44632B",
"V  c #44652A",
"C  c #447025",
"Z  c #477126",
"A  c #467027",
"S  c #4A7527",
"D  c #4B7627",
"F  c #41732F",
"G  c #487128",
"H  c #487228",
"J  c #497329",
"K  c #4A7628",
"L  c #4C772A",
"P  c #4E772C",
"I  c #4B7829",
"U  c #4D7929",
"Y  c #4D7A29",
"T  c #577A33",
"R  c #3B1840",
"E  c #39264B",
"W  c #383958",
"Q  c #4C214E",
"!  c #413643",
"~  c #483A44",
"^  c #542454",
"/  c #552455",
"(  c #572657",
")  c #532852",
"_  c #562A53",
"`  c #54345F",
"'  c #553460",
"]  c #553965",
"[  c #692E65",
"{  c #70306B",
"}  c #75336F",
"|  c #6F3F75",
" . c #7A3673",
".. c #7B3574",
"X. c #7E3777",
"o. c #703E75",
"O. c #743C77",
"+. c #753C78",
"@. c #39405D",
"#. c #3B425F",
"$. c #4D414B",
"%. c #4A464D",
"&. c #4E4651",
"*. c #4E4950",
"=. c #564952",
"-. c #524D55",
";. c #534F59",
":. c #574F59",
">. c #55505A",
",. c #575459",
"<. c #5D505A",
"1. c #5C5E5A",
"2. c #634E53",
"3. c #664D54",
"4. c #6E5A5A",
"5. c #6F5D58",
"6. c #705C58",
"7. c #72585E",
"8. c #5A6542",
"9. c #5A6443",
"0. c #494B6B",
"q. c #494D6C",
"w. c #524A64",
"e. c #56406A",
"r. c #49516F",
"t. c #5D5864",
"y. c #58576F",
"u. c #5D5C6F",
"i. c #5C5D6F",
"p. c #4F4D71",
"a. c #504D71",
"s. c #5D5C79",
"d. c #5F5E7C",
"f. c #704165",
"g. c #724366",
"h. c #784B6A",
"j. c #794C69",
"k. c #664776",
"l. c #6B4074",
"z. c #6B4175",
"x. c #694275",
"c. c #6D4276",
"v. c #714077",
"b. c #65567F",
"n. c #636367",
"m. c #6C6A71",
"M. c #6E6E71",
"N. c #6B6E7E",
"B. c #6C6F7C",
"V. c #716D72",
"C. c #7A787B",
"Z. c #863D7F",
"A. c #883B7E",
"S. c #55832C",
"D. c #55842C",
"F. c #57852D",
"G. c #5A8134",
"H. c #5C8534",
"J. c #648939",
"K. c #64893A",
"L. c #659037",
"P. c #669237",
"I. c #69943A",
"U. c #6C973B",
"Y. c #719B3F",
"T. c #709D3D",
"R. c #098046",
"E. c #049C58",
"W. c #03A05B",
"Q. c #02A55E",
"!. c #665881",
"~. c #636387",
"^. c #676085",
"/. c #676E82",
"(. c #666E85",
"). c #616788",
"_. c #6A668A",
"`. c #676E8F",
"'. c #686F8B",
"]. c #686D8E",
"[. c #6A718E",
"{. c #757B8E",
"}. c #6B7191",
"|. c #747B90",
" X c #747B97",
".X c #717799",
"XX c #747A9B",
"oX c #73799C",
"OX c #777F9F",
"+X c #8A3D81",
"@X c #893E81",
"#X c #8B3E82",
"$X c #8C3F80",
"%X c #8D3D83",
"&X c #8F3C84",
"*X c #913D85",
"=X c #8E4182",
"-X c #99428B",
";X c #99438D",
":X c #9B438E",
">X c #9E468F",
",X c #9F478F",
"<X c #A34A93",
"1X c #A64C95",
"2X c #AC5299",
"3X c #AC509A",
"4X c #AE529A",
"5X c #AF529B",
"6X c #B0539C",
"7X c #B1539D",
"8X c #B557A0",
"9X c #B757A1",
"0X c #79809D",
"qX c #78809F",
"wX c #79809F",
"eX c #7B82A4",
"rX c #7D85A7",
"tX c #848787",
"yX c #848589",
"uX c #8F99B3",
"iX c #959EBD",
"pX c #9AA4BF",
"aX c #9EA8C7",
/* pixels */
"                                              ",
"                                              ",
"      m.1.                          n.M.      ",
"    /.tX                              yX(.    ",
"  aXuX*.%                         %.: ;.pXiX  ",
"r.`.rXw.<.V.                      C.=.y.eX).#.",
"  E e.}.{.:.$.-.              ,.~ t.{.`.]     ",
"    X.k.OX XB.&.!           5 >.B.OX.Xx.X.    ",
"    { ;Xc._.wX'.i.<       E i.[.wX^.v.:X[     ",
"    ( %X-XZ.| !.XXs.#   # d. Xb.o.@X-XZ.Q     ",
"    R  .4X4X>X@Xz.~.0.@ q.~.l.$X,X6X2X} =     ",
"      ( =X6X8X<X&X+.p.@.a.O.*X1X9X6XA.(       ",
"      * _ j.4.5.2.f.' W ` g.3.6.7.j.) &       ",
"        + u B U D.K.8.3 8.J.D.Y V u O         ",
"            1 , a I U.T I.U a , 1             ",
"                - k H S m k ;                 ",
"                    t j t                     ",
"                    h E.f                     ",
"                    h W.g                     ",
"                    s Q.s                     ",
"            o 0 Z S b R.n D m 8 o             ",
"            P J 0 v T.F Y.c w Z H             ",
"          6 G.L.S.w Z Z N i F.P.H.6           ",
"                c 9 o   o 0 k                 "
};
