/* XPM */
static char *nebta1416771477391677148026[] = {
/* columns rows colors chars-per-pixel */
"23 24 233 2 ",
"   c None",
".  c #123510",
"X  c #143711",
"o  c #143811",
"O  c #153912",
"+  c #173913",
"@  c #1D0F2C",
"#  c #2B142E",
"$  c #2B162F",
"%  c #2B1831",
"&  c #2C1B32",
"*  c #311E30",
"=  c #332231",
"-  c #322233",
";  c #342431",
":  c #332135",
">  c #3A2837",
",  c #3C2C3B",
"<  c #3D2C3B",
"1  c #46313B",
"2  c #41353F",
"3  c #28471C",
"4  c #284B1B",
"5  c #2B521B",
"6  c #2E551D",
"7  c #2F581E",
"8  c #30581C",
"9  c #30581D",
"0  c #315A1D",
"q  c #325A1E",
"w  c #345C1F",
"e  c #345D1F",
"r  c #355E1F",
"t  c #0B5B2D",
"y  c #2C4322",
"u  c #2C4421",
"i  c #34452A",
"p  c #374A28",
"a  c #2D5820",
"s  c #2D5C21",
"d  c #3F592A",
"f  c #076534",
"g  c #076735",
"h  c #096131",
"j  c #0A6634",
"k  c #096B38",
"l  c #086F3B",
"z  c #09703B",
"x  c #286026",
"c  c #2C6C2F",
"v  c #3B6520",
"b  c #3B6521",
"n  c #3B6422",
"m  c #3E6824",
"M  c #276B30",
"N  c #415D29",
"B  c #4E4C3F",
"V  c #415231",
"C  c #436E24",
"Z  c #436E26",
"A  c #446F25",
"S  c #446F26",
"D  c #477127",
"F  c #497327",
"G  c #497427",
"H  c #4A7627",
"J  c #41732F",
"K  c #487228",
"L  c #497528",
"P  c #4A7728",
"I  c #4B762A",
"U  c #4C752B",
"Y  c #51782F",
"T  c #527D2D",
"R  c #5B6B3D",
"E  c #597236",
"W  c #587635",
"Q  c #5C713B",
"!  c #5C713C",
"~  c #3E1943",
"^  c #362A4A",
"/  c #353352",
"(  c #323452",
")  c #3E3A58",
"_  c #3E3A5A",
"`  c #3F3C59",
"'  c #411A44",
"]  c #431C47",
"[  c #441D47",
"{  c #4E3942",
"}  c #483F48",
"|  c #512252",
" . c #582758",
".. c #5B275A",
"X. c #533C50",
"o. c #61295E",
"O. c #553C68",
"+. c #6E2F69",
"@. c #6C326B",
"#. c #6E356D",
"$. c #71316B",
"%. c #73316D",
"&. c #6F3F75",
"*. c #7B3574",
"=. c #7E3776",
"-. c #713D76",
";. c #763D78",
":. c #0A7A42",
">. c #3D4562",
",. c #3D4463",
"<. c #4E4941",
"1. c #454449",
"2. c #4B4051",
"3. c #4B4E50",
"4. c #4E4855",
"5. c #4B4258",
"6. c #4A435B",
"7. c #514C57",
"8. c #535254",
"9. c #565558",
"0. c #5A5159",
"q. c #5A565E",
"w. c #5F6145",
"e. c #5E6942",
"r. c #626048",
"t. c #474D66",
"y. c #4B5163",
"u. c #525060",
"i. c #56566A",
"p. c #5A5B6E",
"a. c #554E72",
"s. c #4C5372",
"d. c #505376",
"f. c #505576",
"g. c #5C5E71",
"h. c #5C577B",
"j. c #625E64",
"k. c #605C66",
"l. c #634373",
"z. c #624472",
"x. c #644C78",
"c. c #615079",
"v. c #64517B",
"b. c #63547C",
"n. c #63577E",
"m. c #66547D",
"M. c #64547E",
"N. c #64557E",
"B. c #656467",
"V. c #636169",
"C. c #66676F",
"Z. c #68676B",
"A. c #6C6768",
"S. c #6B6A6C",
"D. c #666675",
"F. c #6B6D77",
"G. c #63657C",
"H. c #756E74",
"J. c #737275",
"K. c #84397B",
"L. c #843A7A",
"P. c #833C78",
"I. c #843C7A",
"U. c #863A7C",
"Y. c #56842D",
"T. c #57852D",
"R. c #58832F",
"E. c #598132",
"W. c #5F8B31",
"Q. c #5C8832",
"!. c #5C8833",
"~. c #5D8933",
"^. c #638D36",
"/. c #6A8C3E",
"(. c #6B8C3F",
"). c #659136",
"_. c #709D3E",
"`. c #729D3F",
"'. c #078449",
"]. c #039F5A",
"[. c #03A05A",
"{. c #03A35D",
"}. c #676C88",
"|. c #6A6F8D",
" X c #6D7194",
".X c #6F7296",
"XX c #6D7595",
"oX c #6F7597",
"OX c #717998",
"+X c #727A99",
"@X c #883C80",
"#X c #893C80",
"$X c #8F3F85",
"%X c #913F85",
"&X c #923F85",
"*X c #884082",
"=X c #904187",
"-X c #924186",
";X c #964B86",
":X c #934188",
">X c #964089",
",X c #9D458E",
"<X c #9D468F",
"1X c #9A4B8A",
"2X c #9D488E",
"3X c #9D498E",
"4X c #9F488F",
"5X c #9F4A8F",
"6X c #A04F8F",
"7X c #A14B90",
"8X c #A24892",
"9X c #A44B93",
"0X c #A35091",
"qX c #B2549E",
"wX c #B2559E",
"eX c #B758A2",
"rX c #B858A2",
"tX c #7A80A1",
"yX c #7C85A1",
"uX c #7B84A4",
"iX c #7C84A5",
"pX c #7D85A6",
"aX c #7F89A5",
"sX c #7F88A7",
"dX c #86878C",
"fX c #87888B",
"gX c #848CA5",
"hX c #818AA9",
"jX c #8891B2",
"kX c #8A94B2",
"lX c #8C95B1",
"zX c #9099B9",
"xX c #969FBE",
/* pixels */
"                                              ",
"        8.                          9.        ",
"    y.fXS.                          J.dXt.    ",
"  kXgXV.;                           < C.lXhX  ",
"s.jXzX2.{ B.                      Z.1 u.xXpX,.",
"  _ h.}.F.A.< 1.              3.> H.D.|.a./   ",
"    #.n.sXg.k.0.=           * j.q.G.uXc.@.    ",
"    *.*Xn.uXyXi.7.2       } 4.p.sXtXx.-X%.    ",
"    ..>X&Xl.M..XOX5.$   $ 6.OX.XM.-.-X&X|     ",
"    [ K.9X,X&X;.N.XX` @ ) XXM.;.-X8X9X=.~     ",
"      o.9XrXqX,X#Xl.d.( f.z.#X,XwXrX2X..      ",
"      [ %.6X6X;XP.K.O.,.O.U.K.1X0X2X+.'       ",
"        - <.R W Q r.X.^ X.r.! E e.<.:         ",
"          3 i N H ~./.V /.~.P N p 4 +         ",
"              % 3 Z ~.~.R.Z y &               ",
"                  7 s x a 6                   ",
"                    h '.t                     ",
"                    l {.j                     ",
"                    l ].k                     ",
"                    f {.g                     ",
"            O 9 D H M :.c H C 5 .             ",
"            T I 9 m _.J `.n e F I             ",
"            Y ^.Y.e D H Z e R.).E.            ",
"                n 9 X   O 9 v                 "
};
