/* XPM */
static char *nebta1516771477391677148026[] = {
/* columns rows colors chars-per-pixel */
"23 24 230 2 ",
"   c None",
".  c #133610",
"X  c #143811",
"o  c #1D3C17",
"O  c #24361E",
"+  c #291031",
"@  c #211835",
"#  c #2F1F38",
"$  c #321339",
"%  c #39173E",
"&  c #272526",
"*  c #272728",
"=  c #2F2E2D",
"-  c #263420",
";  c #2C3229",
":  c #343C2C",
">  c #3C2030",
",  c #392432",
"<  c #3B2A37",
"1  c #312039",
"2  c #342D3E",
"3  c #3E2F3B",
"4  c #3E2E3E",
"5  c #42333E",
"6  c #403A3F",
"7  c #234319",
"8  c #2B521A",
"9  c #2E561C",
"0  c #2F571D",
"q  c #30591D",
"w  c #325B1E",
"e  c #335C1F",
"r  c #345D1F",
"t  c #355E1F",
"y  c #195122",
"u  c #195323",
"i  c #35402C",
"p  c #3B4E2A",
"a  c #3E4C2E",
"s  c #13612F",
"d  c #076635",
"f  c #096534",
"g  c #096634",
"h  c #076836",
"j  c #096A37",
"k  c #086B38",
"l  c #096D39",
"z  c #08713B",
"x  c #2C6B2F",
"c  c #396320",
"v  c #3A6322",
"b  c #3A6420",
"n  c #3E6723",
"m  c #3C6124",
"M  c #3E6325",
"N  c #3E6923",
"B  c #3E6824",
"V  c #286B30",
"C  c #426E24",
"Z  c #446F25",
"A  c #446E26",
"S  c #457027",
"D  c #487227",
"F  c #497427",
"G  c #4A7627",
"H  c #41732E",
"J  c #4A7529",
"K  c #4B7628",
"L  c #4A742A",
"P  c #4D712E",
"I  c #4D792A",
"U  c #4E7A2B",
"Y  c #4F7A2B",
"T  c #4E782C",
"R  c #537B2F",
"E  c #527C2D",
"W  c #537C2F",
"Q  c #557F2D",
"!  c #507030",
"~  c #557832",
"^  c #587F33",
"/  c #2D1F40",
"(  c #372649",
")  c #343D5A",
"_  c #3B3C5D",
"`  c #491F4B",
"'  c #443746",
"]  c #413C43",
"[  c #4A3C42",
"{  c #4E3E48",
"}  c #502250",
"|  c #502351",
" . c #552655",
".. c #572657",
"X. c #5B275A",
"o. c #553461",
"O. c #583562",
"+. c #513861",
"@. c #632A61",
"#. c #6E306A",
"$. c #72326C",
"%. c #75326F",
"&. c #763F6B",
"*. c #793D6E",
"=. c #6F3F75",
"-. c #7A3673",
";. c #7A3674",
":. c #713C76",
">. c #743C77",
",. c #0B7640",
"<. c #3B4361",
"1. c #585B44",
"2. c #585D44",
"3. c #554B55",
"4. c #534D57",
"5. c #544E55",
"6. c #5C4B52",
"7. c #555157",
"8. c #5B595D",
"9. c #5D5D5F",
"0. c #434B68",
"q. c #484C6B",
"w. c #4A4C6B",
"e. c #524D63",
"r. c #544069",
"t. c #5D5760",
"y. c #5C5961",
"u. c #5B5866",
"i. c #5E5F65",
"p. c #59596A",
"a. c #5B5C6E",
"s. c #504E72",
"d. c #504F72",
"f. c #5C5E76",
"g. c #5E5D79",
"h. c #5F5C7A",
"j. c #6E4560",
"k. c #714564",
"l. c #7F4F6E",
"z. c #795068",
"x. c #654676",
"c. c #6A4174",
"v. c #6A4274",
"b. c #6B4275",
"n. c #6C4275",
"m. c #6D4176",
"M. c #724077",
"N. c #5C647A",
"B. c #606164",
"V. c #66646B",
"C. c #6C6D6F",
"Z. c #646778",
"A. c #676C7A",
"S. c #726E73",
"D. c #766E76",
"F. c #873B7D",
"G. c #853D7E",
"H. c #8A437C",
"J. c #8A417E",
"K. c #8F4E7E",
"L. c #895179",
"P. c #53802C",
"I. c #56842D",
"U. c #57852E",
"Y. c #58832F",
"T. c #598330",
"R. c #648F37",
"E. c #65823D",
"W. c #64843C",
"Q. c #659037",
"!. c #6D973C",
"~. c #6F983D",
"^. c #6F9D3D",
"/. c #719C3F",
"(. c #069252",
"). c #039E59",
"_. c #039F5A",
"`. c #03A25C",
"'. c #655980",
"]. c #665B83",
"[. c #5E6586",
"{. c #686286",
"}. c #606983",
"|. c #656589",
" X c #66678B",
".X c #696D89",
"XX c #6B688C",
"oX c #686B8D",
"OX c #6A708C",
"+X c #71778E",
"@X c #73798C",
"#X c #6A7192",
"$X c #6B7192",
"%X c #737A94",
"&X c #727698",
"*X c #747A9D",
"=X c #747B9D",
"-X c #777E9F",
";X c #893D80",
":X c #893D81",
">X c #883E80",
",X c #8B3E80",
"<X c #8C3E82",
"1X c #903D85",
"2X c #8F4183",
"3X c #98428B",
"4X c #99428B",
"5X c #98438C",
"6X c #9C448F",
"7X c #9D468E",
"8X c #9E478F",
"9X c #A64B95",
"0X c #A74C96",
"qX c #AA5098",
"wX c #AC5199",
"eX c #B1549C",
"rX c #B1549D",
"tX c #B757A2",
"yX c #B859A2",
"uX c #78809C",
"iX c #7A82A3",
"pX c #7B83A3",
"aX c #7E86A8",
"sX c #808483",
"dX c #87878A",
"fX c #8189AC",
"gX c #8D96B6",
"hX c #939CB8",
"jX c #97A1C0",
"kX c #A0A8C8",
/* pixels */
"                                              ",
"      C.9.                          B.        ",
"    N.dX5.                          i.sX}.    ",
"  jXhX4.> ]                       ] , u.kXgX  ",
"0.#XfXe.6.S.                      D.{ f.aX[.) ",
"  ( r.#X@Xt.[ 7.              8.5 V.+XoX+./   ",
"    ;.x.-X%XA.3.3           < y.Z.uX&Xv.%.    ",
"    #.5Xn.XXiX.Xa.4       ' p.OXpX{.M.6X@.    ",
"    | <X5XG.n.].*Xh.1   # h.=Xh.:.J.3XF.`     ",
"    % -.wXwX7X;Xv.|.q.@ q. X=.<X7XwXqX$.$     ",
"      ..<XrXtX0X1X>.s.<.s.:.1X0XyXeX<X|       ",
"        X.H.L.z.j.&.O._ o.*.k.l.K.J...        ",
"        & p P P.T.W.2.2 2.E.T.Q ! a *         ",
"          o = : M Y !.~ !.Y M i ; 7           ",
"                O B L I S B - +               ",
"                    u s y                     ",
"                    k (.f                     ",
"                    l ).f                     ",
"                    z `.j                     ",
"                    d `.h                     ",
"            . 9 S F x ,.x L C 8               ",
"            ~ Y q n ^.H /.v e L E             ",
"            T.R.U.e D F Z t U.R.E             ",
"                b 0 X   X q b                 "
};
