/* XPM */
static char *nebta1616771477391677148026[] = {
/* columns rows colors chars-per-pixel */
"23 24 232 2 ",
"   c None",
".  c #143711",
"X  c #143811",
"o  c #35153B",
"O  c #252E23",
"+  c #242824",
"@  c #262926",
"#  c #2B232C",
"$  c #2B2F29",
"%  c #223120",
"&  c #33352D",
"*  c #25203B",
"=  c #3D2431",
"-  c #322E30",
";  c #34253F",
":  c #3F2E3B",
">  c #3D2D3E",
",  c #343A36",
"<  c #402331",
"1  c #204317",
"2  c #29501A",
"3  c #2C541B",
"4  c #2D541B",
"5  c #2F571C",
"6  c #30581C",
"7  c #335B1E",
"8  c #345D1E",
"9  c #345D1F",
"0  c #37611F",
"q  c #104F24",
"w  c #105326",
"e  c #384F27",
"r  c #3A4D2B",
"t  c #375724",
"y  c #355E20",
"u  c #3A5A25",
"i  c #0A6534",
"p  c #086635",
"a  c #0A6735",
"s  c #086736",
"d  c #0D6A37",
"f  c #096B38",
"g  c #096D39",
"h  c #08713C",
"j  c #0C753F",
"k  c #2C6B2E",
"l  c #396121",
"z  c #396321",
"x  c #3A6321",
"c  c #3A6420",
"v  c #3B6523",
"b  c #3D6722",
"n  c #3D6924",
"m  c #3C6B26",
"M  c #286B30",
"N  c #426D24",
"B  c #446F25",
"V  c #456F27",
"C  c #476C2A",
"Z  c #4B6F2C",
"A  c #487427",
"S  c #497527",
"D  c #4B7627",
"F  c #41732E",
"G  c #487328",
"H  c #487428",
"J  c #4A7428",
"K  c #4C762A",
"L  c #4E742D",
"P  c #517F2A",
"I  c #51792F",
"U  c #517C2D",
"Y  c #537C2F",
"T  c #312540",
"R  c #332044",
"E  c #3E3544",
"W  c #363757",
"Q  c #303955",
"!  c #491F4B",
"~  c #4C204E",
"^  c #433340",
"/  c #463842",
"(  c #423945",
")  c #433F47",
"_  c #483C48",
"`  c #4F2250",
"'  c #502251",
"]  c #522353",
"[  c #562555",
"{  c #5C285B",
"}  c #53345B",
"|  c #52325E",
" . c #53355C",
".. c #563A66",
"X. c #672B64",
"o. c #6C2F67",
"O. c #74316E",
"+. c #74326E",
"@. c #6D3F75",
"#. c #6E3E75",
"$. c #7C3675",
"%. c #743E77",
"&. c #723F78",
"*. c #763C78",
"=. c #783B79",
"-. c #7A3B7A",
";. c #7A3E7B",
":. c #3C4460",
">. c #3F4866",
",. c #424046",
"<. c #474149",
"1. c #4D434B",
"2. c #51424D",
"3. c #504954",
"4. c #534A56",
"5. c #5E4F58",
"6. c #575259",
"7. c #5C575C",
"8. c #684E57",
"9. c #6D475F",
"0. c #645252",
"q. c #70585B",
"w. c #617342",
"e. c #607440",
"r. c #464E6A",
"t. c #5C5561",
"y. c #5E5B60",
"u. c #585864",
"i. c #57546D",
"p. c #514B70",
"a. c #514B71",
"s. c #514D70",
"d. c #4D5070",
"f. c #575D7E",
"g. c #714763",
"h. c #605E64",
"j. c #735560",
"k. c #7F546C",
"l. c #6B4376",
"z. c #734078",
"x. c #65507B",
"c. c #66527D",
"v. c #64577E",
"b. c #5E6174",
"n. c #5F6275",
"m. c #57607D",
"M. c #626061",
"N. c #63616C",
"B. c #6B6B6D",
"V. c #797176",
"C. c #767679",
"Z. c #7B787B",
"A. c #813E76",
"S. c #83397B",
"D. c #843B7B",
"F. c #883D7E",
"G. c #804174",
"H. c #875174",
"J. c #52812A",
"K. c #55842C",
"L. c #56852C",
"P. c #56842D",
"I. c #58862D",
"U. c #588231",
"Y. c #5D8733",
"T. c #628D35",
"R. c #638E36",
"E. c #658C39",
"W. c #658D39",
"Q. c #649136",
"!. c #689438",
"~. c #709E3D",
"^. c #719D3E",
"/. c #069554",
"(. c #039F5A",
"). c #03A05A",
"_. c #03A25C",
"`. c #625E83",
"'. c #665D84",
"]. c #655E84",
"[. c #5D6484",
"{. c #636680",
"}. c #636784",
"|. c #656784",
" X c #666D84",
".X c #6B6F82",
"XX c #656588",
"oX c #6B6C8F",
"OX c #696E8F",
"+X c #6B7182",
"@X c #6B748D",
"#X c #6C7391",
"$X c #6F7593",
"%X c #757D96",
"&X c #7A7A94",
"*X c #707698",
"=X c #717698",
"-X c #737799",
";X c #72789A",
":X c #767B9C",
">X c #767C9D",
",X c #893C80",
"<X c #8A3E82",
"1X c #8F3C84",
"2X c #8F3E84",
"3X c #8E3F84",
"4X c #8F3E85",
"5X c #903C86",
"6X c #98438B",
"7X c #99438C",
"8X c #9B438F",
"9X c #9C438F",
"0X c #A14991",
"qX c #A74B97",
"wX c #A94C98",
"eX c #AB5098",
"rX c #AD519A",
"tX c #AD529A",
"yX c #AE529B",
"uX c #B0539C",
"iX c #B0549C",
"pX c #B756A2",
"aX c #B757A2",
"sX c #7F8188",
"dX c #7982A1",
"fX c #7A82A3",
"gX c #7E87A4",
"hX c #818185",
"jX c #8E96B7",
"kX c #97A1BE",
"lX c #97A0C0",
"zX c #A4AECC",
/* pixels */
"                                              ",
"      C.M.                          B.        ",
"  m. XhX_                           y.hX@X    ",
"r.lXkX3.= <.                      <.= u.zXjX  ",
":.[.fXi.5.V.                      Z.2.|.;Xf.Q ",
"  R ..OX&X7.1.6.              h.^ N.%XXX|     ",
"    $.l.-XfX+X3.^ (       ,.< u..XgXOXz.+.    ",
"    X.8X&.'.:X#Xn.>       E n.=X:Xv.;.9X{     ",
"    ' <X6X<X%.c.;X|.;   T }.-Xx.-.3X8XS.!     ",
"    o +.tXuX0X3X#.{.d.* s.'.#.3X0XuXeXo.      ",
"      ' F.tXpXqX1X-.a.>.a.=.3XwXaXtXD.~       ",
"        [ G.k.q.0.9.| W | g.8.j.H.A.]         ",
"        O e C P L.E.w., e.E.L.J.Z r @         ",
"            # - t H !.Y.Q.G u & $ 1           ",
"                % v n n v l +                 ",
"                    w d q                     ",
"                    g /.a                     ",
"                    g (.a                     ",
"                    h _.f                     ",
"                    p _.a     3               ",
"            . 3 B J M j k D N 2               ",
"            U.U 7 b ^.F ^.l 8 K U             ",
"            L T.L.8 A K V 8 L.R.I             ",
"                0 5 X   X 6 v                 "
};
