/* XPM */
static char *nebta1716771477391677148026[] = {
/* columns rows colors chars-per-pixel */
"23 24 222 2 ",
"   c None",
".  c #123611",
"X  c #143811",
"o  c #153911",
"O  c #173B12",
"+  c #183C13",
"@  c #2C112A",
"#  c #37163D",
"$  c #3A173F",
"%  c #3B2733",
"&  c #322E36",
"*  c #3D2833",
"=  c #41333E",
"-  c #2A451F",
";  c #284D1A",
":  c #29481C",
">  c #2B481F",
",  c #275018",
"<  c #24541F",
"1  c #29501A",
"2  c #2A521A",
"3  c #2C541B",
"4  c #2D571B",
"5  c #2F511E",
"6  c #30581D",
"7  c #31591D",
"8  c #325B1E",
"9  c #335C1E",
"0  c #355E1F",
"q  c #0A5D30",
"w  c #095E30",
"e  c #314C22",
"r  c #364A27",
"t  c #36472A",
"y  c #245420",
"u  c #215E27",
"i  c #345123",
"p  c #086333",
"a  c #086635",
"s  c #096A37",
"d  c #096B38",
"f  c #096D3A",
"g  c #09723D",
"h  c #2C6C2E",
"j  c #3B6621",
"k  c #3B6422",
"l  c #3C6622",
"z  c #3F6824",
"x  c #296C30",
"c  c #455E31",
"v  c #436F24",
"b  c #436E26",
"n  c #436F26",
"m  c #446F24",
"M  c #446E26",
"N  c #456F26",
"B  c #4A692D",
"V  c #477127",
"C  c #497227",
"Z  c #4B7627",
"A  c #477128",
"S  c #42732E",
"D  c #4A7329",
"F  c #4A7528",
"G  c #4A7429",
"H  c #537F2C",
"J  c #537D2E",
"K  c #4C6631",
"L  c #5B7737",
"P  c #567D32",
"I  c #587933",
"U  c #587C32",
"Y  c #5A7936",
"T  c #3F1B43",
"R  c #3C1C44",
"E  c #392D4C",
"W  c #38324D",
"Q  c #411A44",
"!  c #441C47",
"~  c #451C47",
"^  c #441D48",
"/  c #471D4A",
"(  c #4B1E4C",
")  c #4E214F",
"_  c #473742",
"`  c #483F49",
"'  c #552555",
"]  c #542654",
"[  c #473C52",
"{  c #573F69",
"}  c #583E69",
"|  c #662C62",
" . c #6A2E65",
".. c #67376D",
"X. c #6B3971",
"o. c #7D3775",
"O. c #733F77",
"+. c #773D78",
"@. c #7F3A7A",
"#. c #7A3D79",
"$. c #7E3C7B",
"%. c #0B7A42",
"&. c #4D454E",
"*. c #53454E",
"=. c #52464F",
"-. c #5A474F",
";. c #504B4D",
":. c #504C4D",
">. c #4D4652",
",. c #4D4C51",
"<. c #4A4158",
"1. c #4E4B5A",
"2. c #514A55",
"3. c #514C5B",
"4. c #575056",
"5. c #616D43",
"6. c #656C44",
"7. c #424364",
"8. c #454969",
"9. c #484E6D",
"0. c #5F5B68",
"q. c #5A5F6D",
"w. c #544C72",
"e. c #594F76",
"r. c #4B5474",
"t. c #595B71",
"y. c #635F66",
"u. c #6A4274",
"i. c #6D4175",
"p. c #744079",
"a. c #64547E",
"s. c #64567F",
"d. c #666568",
"f. c #6B6B6E",
"g. c #71706F",
"h. c #636370",
"j. c #6B6B74",
"k. c #6A6C75",
"l. c #62637A",
"z. c #62667C",
"x. c #7B7E7B",
"c. c #803977",
"v. c #813878",
"b. c #83397A",
"n. c #863B7B",
"m. c #823B7C",
"M. c #813C7D",
"N. c #833C7D",
"B. c #8A3E7F",
"V. c #844377",
"C. c #844777",
"Z. c #824178",
"A. c #85417A",
"S. c #8A467B",
"D. c #88437C",
"F. c #55832C",
"G. c #57822F",
"H. c #57852D",
"J. c #5B872F",
"K. c #5A8332",
"L. c #588530",
"P. c #598431",
"I. c #638E36",
"U. c #669137",
"Y. c #6D943F",
"T. c #709D3D",
"R. c #709D3E",
"E. c #08874C",
"W. c #03A05B",
"Q. c #03A55E",
"!. c #6E9440",
"~. c #655A82",
"^. c #655C83",
"/. c #655D84",
"(. c #655E84",
"). c #676D8C",
"_. c #676C8D",
"`. c #676D8E",
"'. c #686E8E",
"]. c #737586",
"[. c #737889",
"{. c #6E6F92",
"}. c #6E7593",
"|. c #6D7692",
" X c #6F7194",
".X c #6F7795",
"XX c #727A93",
"oX c #737994",
"OX c #717999",
"+X c #72789A",
"@X c #757A9B",
"#X c #737D9A",
"$X c #737C9B",
"%X c #767B9C",
"&X c #757D9C",
"*X c #757D9D",
"=X c #787FA1",
"-X c #8B3E80",
";X c #933F87",
":X c #954088",
">X c #97418A",
",X c #97428B",
"<X c #99438B",
"1X c #9A438B",
"2X c #9F478F",
"3X c #9F4790",
"4X c #A34B93",
"5X c #A54D94",
"6X c #AA4F98",
"7X c #AA5097",
"8X c #AF529B",
"9X c #AF539B",
"0X c #817D81",
"qX c #B555A0",
"wX c #B556A0",
"eX c #B656A1",
"rX c #7B839F",
"tX c #7E87A0",
"yX c #818084",
"uX c #848586",
"iX c #ABB5D4",
"pX c #ABB6D5",
/* pixels */
"                                              ",
"        $Xt.yXf.              d.uXq.}.        ",
"      OXpX].g.                  y.[.iX@X      ",
"      8.OXz.* `               ;.% l.=X9.      ",
"      ^ } '.0.0X              x.h.'.{ R       ",
"      ( m./.tX2.=.,.        4.>.rX/.@.^       ",
"      ! :XO.@XoXk._     & = j.oX*XO.;XQ       ",
"      ! b.<Xi.{..X1.:.  &.3.}. Xu.:Xb.T       ",
"      $ c.5X<X#.~.*X<.@ [ @X~.+.<X4Xo.$       ",
"         .7XeX2XN.a.).W ).~.N.3XeX6X|         ",
"        ) B.8XqX<Xm.e.r.w.$.<XeX9XB.)         ",
"          ] V.C.Z.b.X.7...n.A.S.D.'           ",
"          r B P Y 5.-.E =.6.L I K t           ",
"          , > e b P.!.c Y.P.N i 5 4 +         ",
"                > V G.J.H b -                 ",
"                  , y u < ;                   ",
"                    w E.w                     ",
"                    g W.s                     ",
"                    f W.d                     ",
"                    a Q.p                     ",
"            O 6 V Z x %.h Z b 3 .             ",
"            H G 6 z T.S T.l 9 A D             ",
"            P I.G.9 V C b 0 H.U.K.2           ",
"                k 4 O   O 6 l                 "
};
