/* XPM */
static char *nebta1816771477391677148026[] = {
/* columns rows colors chars-per-pixel */
"23 24 218 2 ",
"   c None",
".  c #133710",
"X  c #143811",
"o  c #163A11",
"O  c #173B12",
"+  c #183C12",
"@  c #193D13",
"#  c #301337",
"$  c #311338",
"%  c #33143A",
"&  c #362F36",
"*  c #3B2E3D",
"=  c #3C333F",
"-  c #423A3F",
";  c #29501A",
":  c #30571D",
">  c #31591D",
",  c #315A1D",
"<  c #325A1D",
"1  c #335B1E",
"2  c #335C1E",
"3  c #345D1E",
"4  c #355E1F",
"5  c #37611F",
"6  c #105124",
"7  c #105325",
"8  c #2C4122",
"9  c #2D4421",
"0  c #355C20",
"q  c #365D20",
"w  c #375F20",
"e  c #076735",
"r  c #086232",
"t  c #096836",
"y  c #096A37",
"u  c #096D39",
"i  c #0E703B",
"p  c #08733E",
"a  c #376121",
"s  c #3A6322",
"d  c #3B6621",
"f  c #3D6623",
"g  c #3E6624",
"h  c #3D6822",
"j  c #3E6924",
"k  c #286E32",
"l  c #2D6E31",
"z  c #454F33",
"x  c #455231",
"c  c #406B23",
"v  c #416A24",
"b  c #416926",
"n  c #416C25",
"m  c #436D25",
"M  c #436C26",
"N  c #436E26",
"B  c #456F25",
"V  c #437127",
"C  c #457125",
"Z  c #457225",
"A  c #467225",
"S  c #467026",
"D  c #477326",
"F  c #40712D",
"G  c #487329",
"H  c #4A7429",
"J  c #4C7728",
"K  c #566F3C",
"L  c #597F32",
"P  c #3B1741",
"I  c #3C1741",
"U  c #311E40",
"Y  c #3B3941",
"T  c #3D3840",
"R  c #4B1F4C",
"E  c #4E214F",
"W  c #403540",
"Q  c #463D44",
"!  c #522251",
"~  c #532253",
"^  c #5C275B",
"/  c #493961",
"(  c #4C3D63",
")  c #5A3862",
"_  c #632C60",
"`  c #672C64",
"'  c #682D64",
"]  c #682D65",
"[  c #692E66",
"{  c #6A2E66",
"}  c #6E2F69",
"|  c #6C3469",
" . c #74336D",
".. c #74336E",
"X. c #74346E",
"o. c #663D70",
"O. c #6E3971",
"+. c #763370",
"@. c #703E77",
"#. c #723F77",
"$. c #773E79",
"%. c #793E7B",
"&. c #7A3E7A",
"*. c #3B425F",
"=. c #0A7C43",
"-. c #4C4648",
";. c #49494B",
":. c #5A5E42",
">. c #4E4752",
",. c #4E4D55",
"<. c #444459",
"1. c #554E5F",
"2. c #52535A",
"3. c #55565A",
"4. c #60584B",
"5. c #615A4B",
"6. c #6B475E",
"7. c #6F495F",
"8. c #5B6040",
"9. c #606E43",
"0. c #484F6E",
"q. c #56446C",
"w. c #535360",
"e. c #4D4F71",
"r. c #565275",
"t. c #595D75",
"y. c #575E79",
"u. c #615D62",
"i. c #6D4176",
"p. c #6B4477",
"a. c #624E79",
"s. c #684C7A",
"d. c #65557E",
"f. c #5B6261",
"g. c #626366",
"h. c #61626B",
"j. c #666268",
"k. c #67636C",
"l. c #6E6A6E",
"z. c #6E6F70",
"x. c #61677F",
"c. c #777075",
"v. c #787977",
"b. c #737079",
"n. c #747278",
"m. c #7A797D",
"M. c #813E7E",
"N. c #52802B",
"B. c #53822B",
"V. c #54812B",
"C. c #57842D",
"Z. c #648E37",
"A. c #648B38",
"S. c #648C38",
"D. c #679437",
"F. c #67913A",
"G. c #689338",
"H. c #699438",
"J. c #6B963A",
"K. c #719E3E",
"L. c #049E5A",
"P. c #03A25C",
"I. c #02A860",
"U. c #749F40",
"Y. c #5C6586",
"T. c #696489",
"R. c #676C8B",
"E. c #676B8C",
"W. c #696F8A",
"Q. c #6B6B8F",
"!. c #71788E",
"~. c #6D6D91",
"^. c #6E6F92",
"/. c #6E7093",
"(. c #6D7792",
"). c #6F7693",
"_. c #6F7596",
"`. c #737994",
"'. c #717799",
"]. c #767E9F",
"[. c #833E80",
"{. c #8B3D82",
"}. c #913D86",
"|. c #923D87",
" X c #8E4086",
".X c #944287",
"XX c #974389",
"oX c #97418A",
"OX c #974688",
"+X c #97458A",
"@X c #97428C",
"#X c #98428B",
"$X c #9A428D",
"%X c #9A448C",
"&X c #9A458C",
"*X c #9A468C",
"=X c #9B458E",
"-X c #9C468E",
";X c #A54E94",
":X c #A84F96",
">X c #AB5099",
",X c #AD519A",
"<X c #B1539D",
"1X c #B1559D",
"2X c #B2569E",
"3X c #B3569E",
"4X c #B557A0",
"5X c #788095",
"6X c #79819B",
"7X c #7B85A2",
"8X c #7D86A5",
"9X c #7F8AA7",
"0X c #878A91",
"qX c #838DAB",
"wX c #8992A8",
"eX c #8992AF",
"rX c #949CBB",
"tX c #929ABC",
/* pixels */
"                                              ",
"            8XeX<.      ;.z.f.).qX            ",
"          *.].rXb.0Xg.    m.n.wXtX0.          ",
"            ( ).-.Q       - * W.r.U           ",
"          ! O.E.1.c.3.    v.k.R.o.!           ",
"          ^  XT.`.j.=     >.!./.[.`           ",
"          ] $Xs.qX2.l.Y u.h.7Xd.@X}           ",
"        # +.#XM.T.6X,.& - `.~.&.#XX.$         ",
"        % X.<X-X&.~.x.2.t./.@.%X,XX.#         ",
"          ] ;X3X%Xi.'.y._.p.+X2X:X]           ",
"          R +X2X>X{.a.Y.q.{.>X2X+XE           ",
"          I _ .X@X}.&.e.@.|.%X*X] I           ",
"          9 x 8.4.6.| / ) 7.4.:.z 8           ",
"        @ 2 d D B.S.9.T K S.N.D 5 ; +         ",
"                0 J J.L G.G 0                 ",
"                  s n V j a                   ",
"                    7 i 6                     ",
"                    p L.u                     ",
"                    y P.y                     ",
"                    e P.r                     ",
"            O 1 C J k =.l J D 1 O             ",
"            b n 1 c K.F K.f 1 n f             ",
"          w G.G.V.3 m D m 0 C.G.Z.:           ",
"                j 1 .   O 1 j                 "
};
