/* XPM */
static char *enemy_right1676983954[] = {
/* columns rows colors chars-per-pixel */
"23 23 45 1 ",
"  c black",
". c #0A0000",
"X c #140000",
"o c #5A6B01",
"O c gray30",
"+ c #AF0000",
"@ c #B01400",
"# c #893B01",
"$ c #AF2727",
"% c #C30000",
"& c #965B5B",
"* c #90615B",
"= c #906767",
"- c #3D8801",
"; c #17AF02",
": c #04B002",
"> c #3BB201",
", c #2AAF28",
"< c #618001",
"1 c #04C302",
"2 c #04C902",
"3 c #03D002",
"4 c #03D502",
"5 c #02E102",
"6 c #01ED02",
"7 c #14E502",
"8 c #01F602",
"9 c #00F902",
"0 c #00FF02",
"q c #0DF20F",
"w c #23DD25",
"e c #2DD32F",
"r c #27D928",
"t c #5C965B",
"y c #43A242",
"u c #5BA85B",
"i c #758F75",
"p c #41C042",
"a c gray51",
"s c gray56",
"d c #81E180",
"f c #B4C0B4",
"g c #C0C0C0",
"h c gray95",
"j c white",
/* pixels */
"aaaaa000000000000uaaaaa",
"&%%%000000000000000%%%a",
"&%%70000000000000000%%a",
"&%%70000aa000000paq0%%a",
"&%>0000ajja0000rgjs00%a",
"&<000001j %00006dO+000a",
"&<00000011100000519000a",
"t5000000000000000000061",
"t380000000000000000051y",
"t1344400000000uue0041#a",
"*o11112000000ihhfw01@%a",
"&%-1111110000ajjg,11%%a",
"&%%;1111100011111111%%a",
"&%%%111a1111111&%-111%a",
"&%%%111a%%%1111   :11 a",
"aaaa1a11aaa111     11  ",
"&%%%1%%1    11      1  ",
"&%%%11%a%   11      11 ",
"&%%%%1%a%%  1        1 ",
"&%%%%1      1        1 ",
"&%%%%%%a%%  11         ",
"&%%%%%%a%%%%%1  .XXXXXa",
"=$$$$$$a$$$$$,$=$$$$$$a"
};
