/* XPM */
static char *enemyleft1676983934[] = {
/* columns rows colors chars-per-pixel */
"23 23 45 1 ",
"  c black",
". c #0A0000",
"X c #140000",
"o c #5A6B01",
"O c gray30",
"+ c #AF0000",
"@ c #B01400",
"# c #893B01",
"$ c #AF2727",
"% c #C30000",
"& c #965B5B",
"* c #90615B",
"= c #906767",
"- c #3D8801",
"; c #17AF02",
": c #04B002",
"> c #3BB201",
", c #2AAF28",
"< c #618001",
"1 c #04C302",
"2 c #04C902",
"3 c #03D202",
"4 c #03D502",
"5 c #02E102",
"6 c #01ED02",
"7 c #14E502",
"8 c #01F602",
"9 c #00F902",
"0 c #00FF02",
"q c #0DF20F",
"w c #23DD25",
"e c #2DD32F",
"r c #27D928",
"t c #5C965B",
"y c #43A242",
"u c #5BA85B",
"i c #758F75",
"p c #41C042",
"a c gray51",
"s c gray56",
"d c #81E180",
"f c #B4C0B4",
"g c #C0C0C0",
"h c gray95",
"j c white",
/* pixels */
"aaaaau000000000000aaaaa",
"a%%%000000000000000%%%&",
"a%%00000000000000007%%&",
"a%%0qap000000aa00007%%&",
"a%00sjgr0000ajja0000>%&",
"a000+Od60000% j100000<&",
"a00091500000111000000<&",
"1600000000000000000005t",
"y150000000000000000083t",
"a#1400euu0000000044431t",
"a%@10wfhhi00000021111o*",
"a%%11,gjja0000111111-%&",
"a%%1111111100011111;%%&",
"a%111-%&1111111a111%%%&",
"a 11:   1111%%%a111%%%&",
"  11     111aaa11a1aaaa",
"  1      11    1%%1%%%&",
" 11      11   %a%11%%%&",
" 1        1  %%a%1%%%%&",
" 1        1      1%%%%&",
"         11  %%a%%%%%%&",
"aXXXXX.  1%%%%%a%%%%%%&",
"a$$$$$$=$,$$$$$a$$$$$$="
};
