/* XPM */
static char *exitclose1677065943[] = {
/* columns rows colors chars-per-pixel */
"23 23 118 2 ",
"   c None",
".  c #1F211F",
"X  c #222624",
"o  c #343734",
"O  c #3F3E3C",
"+  c #472912",
"@  c #492D1D",
"#  c #522C17",
"$  c #53301C",
"%  c #5C331A",
"&  c #6A3D1D",
"*  c #5E3721",
"=  c #663C24",
"-  c #6C3B25",
";  c #653D29",
":  c #753D26",
">  c #7B3E2A",
",  c #5D4436",
"<  c #764423",
"1  c #7A4127",
"2  c #7F402B",
"3  c #7C4931",
"4  c #3D4341",
"5  c #424644",
"6  c #454946",
"7  c #474C49",
"8  c #494D49",
"9  c #555B55",
"0  c #585B56",
"q  c #735742",
"w  c #615953",
"e  c #5F635E",
"r  c #62665E",
"t  c #636661",
"y  c #666A62",
"u  c #696D65",
"i  c #6D7167",
"p  c #6D7269",
"a  c #71756C",
"s  c #74796F",
"d  c #787A6E",
"f  c #727770",
"g  c #767B71",
"h  c #7A7D73",
"j  c #7D7D7C",
"k  c #81432C",
"l  c #88472D",
"z  c #824C2A",
"x  c #8C4B2E",
"c  c #87512A",
"v  c #955C2F",
"b  c #8E4930",
"n  c #944E32",
"m  c #994F35",
"M  c #975431",
"N  c #9D5434",
"B  c #935931",
"V  c #9A5D33",
"C  c #A55C36",
"Z  c #A45D3A",
"A  c #AB5C3B",
"S  c #9D6234",
"D  c #9F6138",
"F  c #A46635",
"G  c #AC6437",
"H  c #AB6B36",
"J  c #A7613A",
"K  c #AE633C",
"L  c #A96C38",
"P  c #B66A3D",
"I  c #BA6C3F",
"U  c #AE7539",
"Y  c #B2753D",
"T  c #BD723F",
"R  c #B37A3C",
"E  c #BC7E3E",
"W  c #805C48",
"Q  c #B56B41",
"!  c #BC6D41",
"~  c #BF644A",
"^  c #BB7142",
"/  c #C26B47",
"(  c #C27543",
")  c #C67A45",
"_  c #CA7D46",
"`  c #C27348",
"'  c #CC7D48",
"]  c #7D8075",
"[  c #7E8279",
"{  c #BF823F",
"}  c #82867C",
"|  c #85887C",
" . c #A48D7C",
".. c #C28243",
"X. c #CC8047",
"o. c #CE8149",
"O. c #D2844B",
"+. c #D6894C",
"@. c #DA8C4E",
"#. c #DC934D",
"$. c #DF9B4D",
"%. c #DD8B53",
"&. c #DF9351",
"*. c #E0974F",
"=. c #E09C4E",
"-. c #E19653",
";. c #E39B51",
":. c #E99E58",
">. c #E7A652",
",. c #E8A156",
"<. c #E9A853",
"1. c #868B81",
"2. c #898C84",
"3. c #8C9085",
"4. c #8E938A",
"5. c #90968C",
"6. c #B4B4B3",
"7. c #D8D8D8",
/* pixels */
"                4.4 g p h t 4.9               ",
"        g ] e g f 9 } } h 7 f p e 3.|         ",
"      a g g f g s , W q W , f g [ } | p       ",
"      X y g g @ V Z Q V Q Q K ; | | r X       ",
"      1.4.s * c ^ ` ) U +.O.X.` = 8 [ ]       ",
"    o s g $ K B O.O.+...%.+.%.%.^ * ] ] o     ",
"    [ i i J ( D +.&.%.{ +.+.+.&.' P 9 u u     ",
"    s a - ^ o.L O.#.O...O.O.O.#.X.( 3 a s     ",
"    6 7 P _ @.H +.O.O...@.+.#.#.O._ X.6 7     ",
"6 g y g _ ' @.H +.O.+...#.+.&.;.O.O.( f [ s e ",
"8 h | a o.o.O.H O.O.O.^ %.+.+.,.O.o.*.5.g g r ",
"5 y y p ' o.O.F O.o.o.{ O.%.+.:.O.O.<.2.i u 9 ",
"  X j y ( O.' F O._ o.R o.@.O.;._ O.>.y } .   ",
"    2.d _ O.O.H o.o.o.U o.o.o.$.) _ =.5.g     ",
"    d a _ O.O.H O.O.O.E ' ' o.-. .7.$.} y     ",
"    r 0 O._ _ v ' o.O.U ' O.o.;.0 j +.u e     ",
"5 2.4.| X._ _ F +.O.+.Y ' O.O.=.y @ < 4.[ [ y ",
"6 ] ] i ( X.) c ' ' O.Z _ ' _ *.u 6.+ 4.i 1.e ",
"5 g ] u / / ! < _ _ ( H T _ ( +.` ` $.2.] [ e ",
"5 e 9 9 ~ K K < / ( I F G P P _ Q b +.7 9 9 4 ",
"    a h N N N & A P A V C C A ! x z _ 3.p     ",
"    g d x l l % m m N x x l l C : 1 C 1.f     ",
"    a r 2 : : # k k k l > > : k - : M p [     "
};
