/* XPM */
static char *exitopen1677065944[] = {
/* columns rows colors chars-per-pixel */
"23 23 166 2 ",
"   c None",
".  c black",
"X  c #010101",
"o  c #020202",
"O  c #040404",
"+  c gray2",
"@  c #060606",
"#  c #070707",
"$  c gray3",
"%  c #090909",
"&  c gray4",
"*  c #0B0B0B",
"=  c #0C0C0C",
"-  c gray5",
";  c gray6",
":  c #101010",
">  c #212423",
",  c #232424",
"<  c #252A27",
"1  c #2E322E",
"2  c #2D3231",
"3  c #333632",
"4  c #343632",
"5  c #353935",
"6  c #343937",
"7  c #3A3D3C",
"8  c #3B3F3C",
"9  c #3E423F",
"0  c #3F433F",
"q  c #3D4341",
"w  c #3E4341",
"e  c #414543",
"r  c #424542",
"t  c #444743",
"y  c #414644",
"u  c #434946",
"i  c #454946",
"p  c #474B46",
"a  c #464A47",
"s  c #444A48",
"d  c #474C49",
"f  c #494B4A",
"g  c #484C49",
"h  c #4A4D48",
"j  c #494E4A",
"k  c #4A4F4C",
"l  c #4C504B",
"z  c #4D514C",
"x  c #4D524E",
"c  c #4D524F",
"v  c #4F534E",
"b  c #4E5450",
"n  c #4F5450",
"m  c #525652",
"M  c #535753",
"N  c #575850",
"B  c #565953",
"V  c #545955",
"C  c #555A56",
"Z  c #585C57",
"A  c #5D615B",
"S  c #5C615C",
"D  c #5D635D",
"F  c #5E635C",
"G  c #5E625D",
"H  c #5E635D",
"J  c #5F635E",
"K  c #60645E",
"L  c #62655F",
"P  c #62665F",
"I  c #636761",
"U  c #646861",
"Y  c #666962",
"T  c #656B63",
"R  c #676D65",
"E  c #686B63",
"W  c #6A6E65",
"Q  c #6E7067",
"!  c #6F7267",
"~  c #6F7168",
"^  c #6E7269",
"/  c #6D726B",
"(  c #6F736A",
")  c #6E736C",
"_  c #70746B",
"`  c #71756B",
"'  c #72756A",
"]  c #73756A",
"[  c #71746D",
"{  c #70756D",
"}  c #71766D",
"|  c #73776C",
" . c #72766D",
".. c #71766E",
"X. c #71766F",
"o. c #72776E",
"O. c #75786C",
"+. c #75786D",
"@. c #77796D",
"#. c #74796E",
"$. c #76796E",
"%. c #77796E",
"&. c #76796F",
"*. c #777A6F",
"=. c #787B6F",
"-. c #757970",
";. c #757A71",
":. c #777A70",
">. c #777A71",
",. c #777B71",
"<. c #777C72",
"1. c #787B72",
"2. c #797D71",
"3. c #787C72",
"4. c #797D72",
"5. c #787D73",
"6. c #7B7D72",
"7. c #7A7E73",
"8. c #7C7E71",
"9. c #7C7E72",
"0. c #7C7E73",
"q. c #7D7F73",
"w. c #7E7F72",
"e. c #7A7E75",
"r. c #7A7E76",
"t. c #7B7E76",
"y. c #7C7F76",
"u. c #7A8076",
"i. c #7B8076",
"p. c #7A8077",
"a. c #7C8076",
"s. c #7D8176",
"d. c #7C8077",
"f. c #7D8077",
"g. c #7C8177",
"h. c #7D8177",
"j. c #7E8176",
"k. c #7E8177",
"l. c #7B8178",
"z. c #7E8178",
"x. c #7E8279",
"c. c #7E827B",
"v. c #7E837C",
"b. c #808175",
"n. c #808276",
"m. c #818377",
"M. c #80847A",
"N. c #81847B",
"B. c #81867C",
"V. c #82867C",
"C. c #83867C",
"Z. c #84887F",
"A. c #868A7E",
"S. c #848881",
"D. c #878B83",
"F. c #878B84",
"G. c #868C85",
"H. c #888C81",
"J. c #888D85",
"K. c #888E86",
"L. c #8F948C",
"P. c #8F968D",
"I. c #90978D",
"U. c #92988E",
"Y. c #93998F",
"T. c #999D95",
/* pixels */
"        V N   ) p.q [ [ 1.Z [ K.  B h         ",
"      z O.<.D p.l.Y <.d.O.l <.) n A.b.y       ",
"      h <.-.l.W 4 . . . . . 3 W H.b.d.p       ",
"      0 l #.Y . . . . . . . . . I q.t 0       ",
"      d.3.0 . . . . . . . . . . . 0 l.d.      ",
"    h _ d.. . . . . . . . . . . . . 9.O.s     ",
"    O.V.5 . . . . . . . . . . . . . 1 N.]     ",
"    O._ . . . . . . . . . . . . . . . _ =.    ",
"6 v.T.I.. . . . . . . . . . . . . . . S.l.J.D ",
"d 3.^ _ . . . . . . . . . . . . . . . G.l.q.D ",
"i d.q.^ . . . . . . . . . . . . . . . U.t.t.D ",
"e D J U . . . . . . . . . . . . . . . [ Y A z ",
"    I.9.. . . . . . . . . . . . . . . S.t.    ",
"    b.9.. . . . . . . . . . . . . . . U.[     ",
"    =.Q . . . . . . . . . . . . . . . l.D     ",
"  , z q . . . . . . . . . . . . . . . n n ,   ",
"y -.d._ . . . . . . . . . . . . . . . J.^ l.K ",
"s d.3.^ . . . . . . . . . . . . . . . Y.O.b.K ",
"i 3.-.E . . . . . . . . . . . . . . . J.=.C.D ",
"2 7 C M . . . . . . @ $ = $ $ $ @ $ $ h V 7 < ",
"    [ 9.. . . # $ = $ $ @ @ O @ @ @ $ I.]     ",
"    3.3.. $ = $ $ $ @                 V.[     ",
"    W L : = $ = =                     [ M.    "
};
