/* XPM */
static char *playerdown1676474645[] = {
/* columns rows colors chars-per-pixel */
"24 24 9 1 ",
"  c black",
". c #C00000",
"X c red",
"o c #C0C000",
"O c yellow",
"+ c #00C0C0",
"@ c #818181",
"# c #C1C1C1",
"$ c white",
/* pixels */
"@@@@@@+++++++++++@@@@@@@",
"@.+++++++oXXXooo+.......",
"@++++oOooOOoXOOOo@......",
"@...O$o$$OOOX$$OOo......",
"@..O$o$$$$OXo$$$Ooo.....",
"@.oO$o$  $OO$  $OOo@....",
"@.O$OO$  $OO$  $OOoo....",
"@.OOOOOOOO##OOOOOOoo....",
"@@OXXOOOO#$##OOOOXXo@@@@",
"@.OXXOOOO##@oOOOOXXo....",
"@.OOo.OOOOooOOOO.oOo....",
"@.oOOo.OOOOOOOO.oOo@....",
"@..OOOo........oOoo.....",
"@..+OOOo$$$$$$oOOo+.....",
"@.+++OOO......oOo+++....",
"@OOO..OOOoooooOo  OOO...",
"@O@O@@@oOOOOOOo   O O @@",
"@O....+++ooooo++    O  .",
"@....+++      +++      .",
"@...@  @      @  @     .",
"@..@##@.@.     @##@  ...",
"@..@@@..@...    @@@.....",
"@.......@.......@.......",
"@.......@.......@......."
};
