/* XPM */
static char *fotor_2023_2_14_17_8_121676390916[] = {
/* columns rows colors chars-per-pixel */
"24 24 2 1 ",
"  c #BF0000",
". c #808080",
/* pixels */
"........................",
".       .       .       ",
".       .       .       ",
".       .       .       ",
".       .       .       ",
".       .       .       ",
".       .       .       ",
".       .       .       ",
"........................",
".       .       .       ",
".       .       .       ",
".       .       .       ",
".       .       .       ",
".       .       .       ",
".       .       .       ",
".       .       .       ",
"........................",
".       .       .       ",
".       .       .       ",
".       .       .       ",
".       .       .       ",
".       .       .       ",
".       .       .       ",
".       .       .       "
};
