/* XPM */
static char *lakher1676648284[] = {
/* columns rows colors chars-per-pixel */
"23 23 124 2 ",
"   c black",
".  c #050500",
"X  c #040404",
"o  c #070707",
"O  c #0B0303",
"+  c #0C0000",
"@  c #080800",
"#  c #0D0D00",
"$  c gray4",
"%  c gray5",
"&  c gray6",
"*  c #031414",
"=  c #200000",
"-  c #313131",
";  c gray24",
":  c #7D7D00",
">  c #364141",
",  c #0D6255",
"<  c #484848",
"1  c #555555",
"2  c #585858",
"3  c #5D6666",
"4  c #6D6D6D",
"5  c #6F6F6F",
"6  c #727265",
"7  c #797B7A",
"8  c #7B7B7B",
"9  c #8B0000",
"0  c #B60000",
"q  c #BB0000",
"w  c #BF0000",
"e  c #B40D0D",
"r  c #BB0B0B",
"t  c #BF0808",
"y  c #BE0909",
"u  c #BD0B0B",
"i  c #BC0E0E",
"p  c #AB1E1D",
"a  c #B41212",
"s  c #AC2D2D",
"d  c firebrick",
"f  c #BF2222",
"g  c #AA3131",
"h  c #A43E3E",
"j  c #C30000",
"k  c #C40000",
"l  c #C30400",
"z  c #C00606",
"x  c #C30A00",
"c  c #C00906",
"v  c #D60100",
"b  c #E10100",
"n  c #FE0200",
"m  c #E91311",
"M  c #C43800",
"N  c #C36600",
"B  c #A24242",
"V  c #A04545",
"C  c #817575",
"Z  c #867A7A",
"A  c #837F7F",
"S  c #847F7F",
"D  c #887A7A",
"F  c #D95D5D",
"G  c #7AC348",
"H  c #45C37D",
"J  c #5CD97C",
"K  c #ADAD00",
"L  c #BFBF00",
"P  c #B5B51B",
"I  c #ABAB2F",
"U  c #A5A43B",
"Y  c #A6A63A",
"T  c #C49100",
"R  c #CAA801",
"E  c #C3BF00",
"W  c #EFBC00",
"Q  c #EEBE02",
"!  c #A5C31D",
"~  c #B1E937",
"^  c #C3C300",
"/  c #C1C103",
"(  c #C1C302",
")  c #C8C800",
"_  c #CDCD00",
"`  c #CFD709",
"'  c #EAEA00",
"]  c #FAEB07",
"[  c #F3F602",
"{  c #F6F600",
"}  c #FBF000",
"|  c #FAFA00",
" . c #FBFB00",
".. c #FDFE01",
"X. c #DFDE21",
"o. c #86867A",
"O. c #85817D",
"+. c #868878",
"@. c #81C341",
"#. c #319191",
"$. c #309393",
"%. c #0BB1B0",
"&. c #0ABBBA",
"*. c #13B9B8",
"=. c #24A8A7",
"-. c #4D9C9C",
";. c #6F8B8B",
":. c #748484",
">. c #7D8383",
",. c #7A8686",
"<. c #738A8A",
"1. c #1EC3A5",
"2. c #07C4BC",
"3. c #11C3B1",
"4. c #10C7B6",
"5. c #20C3A2",
"6. c #00C3C2",
"7. c #78DFDE",
"8. c #838080",
"9. c gray51",
"0. c #90E5E4",
"q. c #FEFECC",
"w. c #FBFBEA",
"e. c white",
/* pixels */
"- 1 q j j j j F e.7.6.6.6.6.6.*.t j j j j j h ",
"<   e i i i f 0.6.6.6.6.6.6.6.6.p i i i i i V ",
"+ O C >.,.,.;.6.6.6.6.6.6.6.6.6.>.D D Z Z Z 8.",
"j s r #.6.6.6.6.6.6.6.6.6.6.6.6.m n b j j j h ",
"j s &.6.6.6.6.6.6.6.6.6.6.6.6.6.m v j j j j h ",
"j s a #.6.6.6.6.6.6.6.6.6.6.6.=.R M j j j j h ",
"j s z j j ( ( G 6.6.6.6.6.6.6.1.^ ^ N j j j h ",
"j s z l ] q.....J 2.2.2.2.2.J [ ^ ^ Y j j j h ",
"j s t T w.......................) ^ ^ l k j h ",
"t g t W ........................) ^ ^ c z z B ",
"8.8.O.X.........................) ^ ^ O.8.8.8.",
"j s z W ........................) ^ ^ l j j h ",
"j s z T ......................| ^ ^ ^ l j j h ",
"j s z x } ....................{ ^ ^ Y k j k h ",
"k s z W ) ..................' ^ ( ^ N j j j h ",
"j s t W .._ ..............| ^ ^ 3.6.3 j j j h ",
"j s t W 4.1.) ............^ ^ ! 6.6.6.z k j h ",
"t g i t t 8.+.`  .| ..( ^ ^ / P %.~ ..E 0 t B ",
"8.8.8.S 8.O.:.H ^ ^ ^ ^ ^ E I 9.& K | L X 8 8.",
"z s t t Z 4 * 6.@.^ ^ ^ ^ ^ 9.5   . : L   X B ",
"j s t j t 8.7 -.2., # # 6 o.2 o     . #     h ",
"j s z j j d 8.,.<.>     & & $               h ",
"j s t j j j i 8.8.; 9 w =             o w j h "
};
