/* XPM */
static char *banania_player1676389086[] = {
/* columns rows colors chars-per-pixel */
"23 23 10 1 ",
"  c black",
". c #BF0000",
"X c red",
"o c #BFBF00",
"O c yellow",
"+ c #00BFBF",
"@ c cyan",
"# c #808080",
"$ c #C0C0C0",
"% c white",
/* pixels */
".... ##%%++++++++#### %",
"..... %+++++++++++### %",
"######++++++++++++    %",
"..+++++++ooooXXX++... %",
".++++OOOOOOOooXXo#... %",
"....OOOOOOOo%%XOo%#.. %",
"...O%OOOOOo%%%%O%%%.. %",
"..o%%OOOOOo%# %O%# #. %",
"..O%OOOOOOo%# %O%# o. %",
"..OOOOOOOOOOOOO$$OOo. %",
"##OOOOOXXOOOOO#$%$Oo# %",
"..OOOOOXXOOOOO##$$Oo. %",
"..OOOOOOo.OOOOo##Ooo. %",
"..oOOOOOOo.OOOOOOOo#. %",
"...OOOOOOOo.......#.. %",
"....OOOOOOOo%%%%%%+++ %",
".....OOOOOOo.....#### %",
"......oOOOOOooooo++++ %",
"#######ooOOOOOOo+++++ %",
"......#.+++oooo+      %",
"......#++++  ++++     %",
"......+++  .  +++     %",
"......    $$.     $$  @"
};
