/* XPM */
static char *bananialeft1676468013[] = {
/* columns rows colors chars-per-pixel */
"23 23 10 1 ",
"  c black",
". c #BF0000",
"X c red",
"o c #BFBF00",
"O c yellow",
"+ c #00BFBF",
"@ c cyan",
"# c #808080",
"$ c #C0C0C0",
"% c white",
/* pixels */
"% ####++++++++%%## ....",
"% ###+++++++++++% .....",
"%    ++++++++++++######",
"% ...++XXXoooo+++++++..",
"% ...#oXXooOOOOOOO++++.",
"% ..#%oOX%%oOOOOOOO....",
"% ..%%%O%%%%oOOOOO%O...",
"% .# #%O% #%oOOOOO%%o..",
"% .o #%O% #%oOOOOOO%O..",
"% .oOO$$OOOOOOOOOOOOO..",
"% #oO$%$#OOOOOXXOOOOO##",
"% .oO$$##OOOOOXXOOOOO..",
"% .ooO##oOOOO.oOOOOOO..",
"% .#oOOOOOOO.oOOOOOOo..",
"% ..#.......oOOOOOOO...",
"% +++%%%%%%oOOOOOOO....",
"% ####.....oOOOOOO.....",
"% ++++oooooOOOOOo......",
"% +++++oOOOOOOoo#######",
"%      +oooo+++.#......",
"%     ++++  ++++#......",
"%     +++  .  +++......",
"@  $$     .$$    ......"
};
